G04 Layer_Color=65535*
%FSLAX23Y23*%
%MOIN*%
G70*
G01*
G75*
%ADD10C,0.010*%
G36*
X2084Y344D02*
X2090D01*
Y339D01*
X2084D01*
Y330D01*
X2080D01*
Y339D01*
X2063D01*
Y344D01*
X2081Y368D01*
X2084D01*
Y344D01*
D02*
G37*
G36*
X2101Y335D02*
X2120D01*
Y330D01*
X2096D01*
Y368D01*
X2101D01*
Y335D01*
D02*
G37*
G36*
X2141Y369D02*
X2141D01*
X2142Y369D01*
X2143Y369D01*
X2144Y368D01*
X2146Y368D01*
X2147Y368D01*
X2147D01*
X2147Y368D01*
X2147Y368D01*
X2148Y367D01*
X2148Y367D01*
X2149Y367D01*
X2150Y366D01*
X2151Y365D01*
X2151Y365D01*
X2152Y364D01*
X2152Y364D01*
X2152Y363D01*
X2153Y363D01*
X2153Y362D01*
X2153Y361D01*
X2154Y360D01*
X2154Y359D01*
X2154Y358D01*
X2149Y357D01*
Y357D01*
Y357D01*
X2149Y358D01*
X2149Y358D01*
X2149Y359D01*
X2149Y359D01*
X2148Y360D01*
X2148Y361D01*
X2147Y362D01*
X2146Y363D01*
X2146Y363D01*
X2146Y363D01*
X2145Y363D01*
X2145Y364D01*
X2144Y364D01*
X2143Y364D01*
X2141Y365D01*
X2140Y365D01*
X2139D01*
X2139Y365D01*
X2138Y364D01*
X2137Y364D01*
X2136Y364D01*
X2135Y364D01*
X2134Y363D01*
X2133Y363D01*
X2133Y363D01*
X2133Y363D01*
X2133Y363D01*
X2132Y362D01*
X2132Y362D01*
X2132Y361D01*
X2131Y360D01*
X2131Y360D01*
X2131Y359D01*
Y359D01*
Y358D01*
X2131Y358D01*
X2131Y358D01*
X2131Y357D01*
X2131Y356D01*
X2132Y356D01*
X2132Y355D01*
X2132Y355D01*
X2133Y355D01*
X2133Y355D01*
X2133Y355D01*
X2133Y355D01*
X2134Y355D01*
X2134Y354D01*
X2135Y354D01*
X2135Y354D01*
X2136Y354D01*
X2137Y353D01*
X2138Y353D01*
X2139Y353D01*
X2140Y353D01*
X2140D01*
X2140Y353D01*
X2141Y352D01*
X2141Y352D01*
X2142Y352D01*
X2142Y352D01*
X2143Y352D01*
X2145Y351D01*
X2146Y351D01*
X2147Y351D01*
X2147Y351D01*
X2148Y350D01*
X2149Y350D01*
X2149D01*
X2149Y350D01*
X2149Y350D01*
X2149Y350D01*
X2150Y350D01*
X2150Y349D01*
X2151Y349D01*
X2152Y348D01*
X2153Y347D01*
X2153Y346D01*
X2154Y346D01*
X2154Y346D01*
X2154Y345D01*
X2154Y345D01*
X2155Y344D01*
X2155Y343D01*
X2155Y342D01*
X2155Y341D01*
Y341D01*
Y341D01*
Y341D01*
Y340D01*
X2155Y340D01*
X2155Y339D01*
X2155Y338D01*
X2154Y337D01*
X2154Y336D01*
X2153Y335D01*
Y335D01*
X2153Y335D01*
X2153Y335D01*
X2153Y334D01*
X2152Y333D01*
X2151Y333D01*
X2150Y332D01*
X2149Y331D01*
X2148Y331D01*
X2148D01*
X2148Y331D01*
X2148Y331D01*
X2148Y331D01*
X2147Y331D01*
X2147Y330D01*
X2146Y330D01*
X2145Y330D01*
X2144Y330D01*
X2142Y329D01*
X2141Y329D01*
X2140D01*
X2140Y329D01*
X2139D01*
X2138Y329D01*
X2138Y330D01*
X2136Y330D01*
X2135Y330D01*
X2133Y330D01*
X2132Y331D01*
X2132D01*
X2132Y331D01*
X2132Y331D01*
X2132Y331D01*
X2131Y331D01*
X2130Y332D01*
X2129Y333D01*
X2128Y333D01*
X2127Y334D01*
X2127Y335D01*
Y335D01*
X2127Y336D01*
X2126Y336D01*
X2126Y336D01*
X2126Y336D01*
X2126Y337D01*
X2126Y337D01*
X2125Y339D01*
X2125Y340D01*
X2125Y341D01*
X2125Y342D01*
X2129Y343D01*
Y343D01*
Y343D01*
X2129Y342D01*
X2130Y342D01*
X2130Y341D01*
X2130Y340D01*
X2130Y340D01*
X2130Y339D01*
X2131Y338D01*
X2131Y338D01*
X2131Y338D01*
X2131Y337D01*
X2132Y337D01*
X2132Y336D01*
X2133Y336D01*
X2134Y335D01*
X2135Y335D01*
X2135D01*
X2135Y335D01*
X2135Y335D01*
X2136Y335D01*
X2136Y334D01*
X2137Y334D01*
X2138Y334D01*
X2139Y334D01*
X2141Y334D01*
X2141D01*
X2142Y334D01*
X2142Y334D01*
X2143Y334D01*
X2144Y334D01*
X2145Y334D01*
X2146Y335D01*
X2146Y335D01*
X2146Y335D01*
X2146Y335D01*
X2147Y335D01*
X2147Y336D01*
X2148Y336D01*
X2149Y337D01*
X2149Y337D01*
X2149Y337D01*
X2149Y337D01*
X2149Y338D01*
X2150Y338D01*
X2150Y339D01*
X2150Y339D01*
X2150Y340D01*
X2150Y340D01*
Y340D01*
Y341D01*
X2150Y341D01*
X2150Y341D01*
X2150Y342D01*
X2150Y343D01*
X2149Y343D01*
X2149Y344D01*
X2149Y344D01*
X2149Y344D01*
X2149Y344D01*
X2148Y344D01*
X2148Y345D01*
X2147Y345D01*
X2147Y345D01*
X2146Y346D01*
X2146Y346D01*
X2145Y346D01*
X2145Y346D01*
X2145Y346D01*
X2144Y346D01*
X2144Y346D01*
X2143Y347D01*
X2143Y347D01*
X2142Y347D01*
X2141Y347D01*
X2141Y347D01*
X2140Y347D01*
X2139Y348D01*
X2139D01*
X2139Y348D01*
X2138Y348D01*
X2138Y348D01*
X2137Y348D01*
X2137Y348D01*
X2136Y349D01*
X2135Y349D01*
X2133Y349D01*
X2132Y350D01*
X2132Y350D01*
X2131Y350D01*
X2131D01*
X2131Y350D01*
X2131Y350D01*
X2130Y351D01*
X2130Y351D01*
X2129Y352D01*
X2128Y352D01*
X2128Y353D01*
X2127Y354D01*
X2127Y354D01*
X2127Y354D01*
X2127Y354D01*
X2127Y355D01*
X2126Y356D01*
X2126Y357D01*
X2126Y358D01*
X2126Y358D01*
Y359D01*
Y359D01*
Y359D01*
Y359D01*
X2126Y360D01*
X2126Y360D01*
X2126Y361D01*
X2127Y362D01*
X2127Y363D01*
X2128Y364D01*
Y364D01*
X2128Y364D01*
X2128Y364D01*
X2128Y365D01*
X2129Y365D01*
X2130Y366D01*
X2130Y367D01*
X2131Y367D01*
X2132Y368D01*
X2132D01*
X2133Y368D01*
X2133Y368D01*
X2133Y368D01*
X2133Y368D01*
X2134Y368D01*
X2134Y368D01*
X2136Y369D01*
X2137Y369D01*
X2138Y369D01*
X2139Y369D01*
X2140D01*
X2141Y369D01*
D02*
G37*
G36*
X2174Y368D02*
X2174Y368D01*
X2175Y368D01*
X2176Y368D01*
X2177Y368D01*
X2178Y367D01*
X2178Y367D01*
X2178Y367D01*
X2179Y367D01*
X2179Y366D01*
X2180Y366D01*
X2181Y365D01*
X2181Y365D01*
X2182Y364D01*
X2182Y364D01*
X2182Y363D01*
X2182Y363D01*
X2183Y362D01*
X2183Y361D01*
X2184Y360D01*
X2184Y359D01*
X2184Y358D01*
Y358D01*
X2184Y358D01*
X2184Y358D01*
X2184Y357D01*
X2184Y357D01*
X2185Y357D01*
X2185Y356D01*
X2185Y356D01*
X2185Y355D01*
X2185Y354D01*
X2185Y354D01*
X2185Y353D01*
X2185Y352D01*
Y351D01*
X2185Y350D01*
Y349D01*
Y349D01*
Y349D01*
Y348D01*
Y348D01*
X2185Y347D01*
Y347D01*
X2185Y346D01*
X2185Y345D01*
X2185Y343D01*
X2185Y341D01*
X2184Y340D01*
X2184Y339D01*
X2184Y338D01*
Y338D01*
X2184Y338D01*
X2184Y338D01*
X2184Y337D01*
X2183Y337D01*
X2183Y337D01*
X2183Y336D01*
X2182Y335D01*
X2181Y334D01*
X2181Y333D01*
X2180Y332D01*
X2180D01*
X2179Y331D01*
X2179Y331D01*
X2179Y331D01*
X2178Y331D01*
X2178Y331D01*
X2177Y330D01*
X2175Y330D01*
X2174Y329D01*
X2173Y329D01*
X2172D01*
X2172Y329D01*
X2171Y329D01*
X2171Y330D01*
X2170Y330D01*
X2169Y330D01*
X2169Y330D01*
X2168Y330D01*
X2167Y331D01*
X2167Y331D01*
X2166Y331D01*
X2165Y332D01*
X2165Y333D01*
X2164Y333D01*
X2164Y333D01*
X2164Y334D01*
X2164Y334D01*
X2163Y334D01*
X2163Y335D01*
X2163Y335D01*
X2162Y336D01*
X2162Y337D01*
X2162Y338D01*
X2161Y339D01*
X2161Y341D01*
X2161Y342D01*
X2160Y343D01*
X2160Y345D01*
X2160Y347D01*
X2160Y349D01*
Y349D01*
Y349D01*
Y350D01*
Y350D01*
X2160Y351D01*
Y351D01*
X2160Y352D01*
X2160Y353D01*
X2160Y355D01*
X2161Y356D01*
X2161Y358D01*
X2161Y359D01*
X2161Y360D01*
Y360D01*
X2162Y360D01*
X2162Y360D01*
X2162Y361D01*
X2162Y361D01*
X2162Y361D01*
X2163Y362D01*
X2163Y363D01*
X2164Y364D01*
X2165Y365D01*
X2166Y366D01*
X2166D01*
X2166Y366D01*
X2166Y366D01*
X2166Y367D01*
X2166Y367D01*
X2167Y367D01*
X2168Y367D01*
X2169Y368D01*
X2170Y368D01*
X2171Y368D01*
X2173Y369D01*
X2173D01*
X2174Y368D01*
D02*
G37*
G36*
X2203D02*
X2204Y368D01*
X2204Y368D01*
X2205Y368D01*
X2207Y368D01*
X2208Y367D01*
X2209Y367D01*
X2209Y367D01*
X2210Y366D01*
X2211Y366D01*
X2211Y366D01*
X2211Y365D01*
X2211Y365D01*
X2211Y365D01*
X2211Y365D01*
X2212Y364D01*
X2212Y364D01*
X2213Y363D01*
X2213Y361D01*
X2214Y360D01*
X2214Y359D01*
X2214Y358D01*
Y358D01*
Y358D01*
Y358D01*
X2214Y358D01*
X2213Y357D01*
X2213Y356D01*
X2213Y355D01*
X2213Y355D01*
X2212Y354D01*
X2212Y354D01*
X2212Y353D01*
X2212Y353D01*
X2211Y353D01*
X2211Y352D01*
X2210Y352D01*
X2209Y351D01*
X2208Y351D01*
X2208D01*
X2208Y351D01*
X2208Y351D01*
X2209Y351D01*
X2209Y350D01*
X2210Y350D01*
X2211Y349D01*
X2212Y349D01*
X2213Y348D01*
X2213Y347D01*
X2213Y347D01*
X2214Y347D01*
X2214Y346D01*
X2214Y345D01*
X2215Y344D01*
X2215Y343D01*
X2215Y342D01*
X2215Y341D01*
Y341D01*
Y341D01*
Y341D01*
X2215Y340D01*
X2215Y340D01*
X2215Y339D01*
X2215Y339D01*
X2215Y338D01*
X2214Y337D01*
X2214Y336D01*
X2214Y335D01*
X2213Y335D01*
X2213Y334D01*
X2212Y333D01*
X2212Y333D01*
X2212Y333D01*
X2212Y333D01*
X2211Y332D01*
X2211Y332D01*
X2211Y332D01*
X2210Y332D01*
X2210Y331D01*
X2209Y331D01*
X2209Y331D01*
X2208Y330D01*
X2207Y330D01*
X2206Y330D01*
X2206Y330D01*
X2205Y330D01*
X2204Y329D01*
X2203Y329D01*
X2202D01*
X2202Y329D01*
X2201Y329D01*
X2201Y330D01*
X2200Y330D01*
X2199Y330D01*
X2198Y330D01*
X2197Y330D01*
X2196Y331D01*
X2196Y331D01*
X2195Y332D01*
X2194Y332D01*
X2193Y333D01*
X2193Y333D01*
X2193Y333D01*
X2193Y333D01*
X2193Y333D01*
X2193Y334D01*
X2192Y334D01*
X2192Y334D01*
X2192Y335D01*
X2191Y336D01*
X2191Y336D01*
X2190Y338D01*
X2190Y338D01*
X2190Y339D01*
X2190Y340D01*
X2190Y341D01*
Y341D01*
Y341D01*
Y341D01*
X2190Y342D01*
Y342D01*
X2190Y342D01*
X2190Y343D01*
X2190Y344D01*
X2191Y345D01*
X2191Y346D01*
X2192Y347D01*
Y347D01*
X2192Y347D01*
X2192Y348D01*
X2193Y348D01*
X2193Y349D01*
X2194Y349D01*
X2195Y350D01*
X2196Y350D01*
X2197Y351D01*
X2197D01*
X2197Y351D01*
X2197Y351D01*
X2196Y351D01*
X2196Y352D01*
X2195Y352D01*
X2194Y353D01*
X2193Y353D01*
X2193Y354D01*
X2193Y354D01*
X2193Y354D01*
X2192Y355D01*
X2192Y355D01*
X2192Y356D01*
X2192Y357D01*
X2192Y358D01*
X2191Y359D01*
Y359D01*
Y359D01*
Y359D01*
X2192Y359D01*
X2192Y360D01*
X2192Y360D01*
X2192Y361D01*
X2192Y362D01*
X2193Y363D01*
X2193Y364D01*
X2193Y365D01*
X2194Y365D01*
X2194Y366D01*
X2194Y366D01*
X2195Y366D01*
X2195Y366D01*
X2195Y366D01*
X2195Y366D01*
X2196Y367D01*
X2196Y367D01*
X2197Y367D01*
X2197Y367D01*
X2198Y368D01*
X2199Y368D01*
X2201Y368D01*
X2202Y368D01*
X2202Y369D01*
X2203D01*
X2203Y368D01*
D02*
G37*
G36*
X2060Y364D02*
X2060Y364D01*
X2060Y364D01*
X2060Y364D01*
X2059Y364D01*
X2059Y363D01*
X2059Y363D01*
X2058Y362D01*
X2058Y361D01*
X2057Y361D01*
X2056Y360D01*
X2056Y359D01*
X2055Y358D01*
X2055Y357D01*
X2054Y356D01*
X2053Y355D01*
X2053Y354D01*
X2053Y354D01*
X2052Y354D01*
X2052Y353D01*
X2052Y353D01*
X2052Y352D01*
X2051Y351D01*
X2051Y351D01*
X2051Y350D01*
X2050Y349D01*
X2050Y348D01*
X2049Y347D01*
X2049Y345D01*
X2048Y343D01*
X2047Y341D01*
Y341D01*
X2047Y340D01*
X2047Y340D01*
X2047Y340D01*
X2047Y339D01*
X2047Y339D01*
X2046Y338D01*
X2046Y337D01*
X2046Y337D01*
X2046Y336D01*
X2046Y334D01*
X2045Y332D01*
X2045Y330D01*
X2040D01*
Y330D01*
Y330D01*
Y330D01*
X2040Y331D01*
Y331D01*
X2040Y332D01*
X2041Y332D01*
X2041Y333D01*
X2041Y334D01*
X2041Y335D01*
X2041Y336D01*
X2041Y337D01*
X2041Y338D01*
X2042Y339D01*
X2042Y341D01*
Y341D01*
X2042Y341D01*
X2042Y342D01*
X2042Y342D01*
X2043Y343D01*
X2043Y343D01*
X2043Y344D01*
X2043Y345D01*
X2044Y346D01*
X2044Y347D01*
X2045Y349D01*
X2046Y351D01*
X2047Y353D01*
X2047Y353D01*
X2047Y354D01*
X2047Y354D01*
X2048Y354D01*
X2048Y355D01*
X2048Y355D01*
X2049Y356D01*
X2049Y357D01*
X2050Y358D01*
X2051Y360D01*
X2053Y362D01*
X2054Y363D01*
X2035D01*
Y368D01*
X2060D01*
Y364D01*
D02*
G37*
G36*
X558Y330D02*
X553D01*
Y360D01*
X553Y360D01*
X553Y360D01*
X552Y359D01*
X552Y359D01*
X551Y358D01*
X550Y358D01*
X550Y357D01*
X549Y357D01*
X549D01*
X549Y357D01*
X548Y356D01*
X548Y356D01*
X547Y356D01*
X546Y355D01*
X545Y355D01*
X545Y355D01*
X544Y354D01*
Y359D01*
X544D01*
X544Y359D01*
X544Y359D01*
X544Y359D01*
X545Y359D01*
X545Y360D01*
X546Y360D01*
X547Y361D01*
X548Y362D01*
X549Y362D01*
X551Y363D01*
X551Y363D01*
X551Y363D01*
X551Y364D01*
X552Y364D01*
X552Y365D01*
X553Y366D01*
X554Y367D01*
X554Y368D01*
X555Y369D01*
X558D01*
Y330D01*
D02*
G37*
G36*
X594Y363D02*
X578D01*
X576Y353D01*
X576Y353D01*
X576Y353D01*
X577Y353D01*
X577Y353D01*
X577Y354D01*
X578Y354D01*
X578Y354D01*
X580Y355D01*
X581Y355D01*
X582Y355D01*
X583Y356D01*
X584D01*
X584Y355D01*
X585Y355D01*
X585Y355D01*
X586Y355D01*
X586Y355D01*
X588Y355D01*
X588Y354D01*
X589Y354D01*
X590Y354D01*
X591Y353D01*
X591Y353D01*
X592Y352D01*
X592Y352D01*
X592Y352D01*
X592Y352D01*
X593Y351D01*
X593Y351D01*
X593Y351D01*
X593Y350D01*
X594Y350D01*
X594Y349D01*
X594Y348D01*
X595Y348D01*
X595Y347D01*
X595Y346D01*
X595Y345D01*
X595Y344D01*
X595Y343D01*
Y343D01*
Y343D01*
Y343D01*
X595Y342D01*
X595Y342D01*
X595Y341D01*
X595Y341D01*
X595Y340D01*
X595Y339D01*
X594Y337D01*
X594Y336D01*
X593Y335D01*
X593Y335D01*
X592Y334D01*
X592Y334D01*
X592Y334D01*
X592Y334D01*
X592Y333D01*
X591Y333D01*
X591Y333D01*
X590Y332D01*
X590Y332D01*
X589Y331D01*
X588Y331D01*
X587Y330D01*
X587Y330D01*
X586Y330D01*
X585Y330D01*
X583Y329D01*
X582Y329D01*
X582D01*
X581Y329D01*
X581Y329D01*
X580Y330D01*
X580Y330D01*
X579Y330D01*
X578Y330D01*
X576Y331D01*
X576Y331D01*
X575Y331D01*
X574Y332D01*
X574Y332D01*
X574Y332D01*
X574Y332D01*
X573Y333D01*
X573Y333D01*
X573Y333D01*
X573Y333D01*
X572Y334D01*
X572Y334D01*
X572Y335D01*
X571Y335D01*
X571Y337D01*
X570Y338D01*
X570Y339D01*
X570Y340D01*
X575Y340D01*
Y340D01*
Y340D01*
X575Y340D01*
X575Y340D01*
X575Y339D01*
X575Y338D01*
X576Y338D01*
X576Y337D01*
X577Y336D01*
X577Y335D01*
X578Y335D01*
X578Y335D01*
X578Y334D01*
X579Y334D01*
X580Y334D01*
X580Y334D01*
X581Y333D01*
X582Y333D01*
X583D01*
X583Y333D01*
X584Y333D01*
X584Y334D01*
X585Y334D01*
X586Y334D01*
X587Y335D01*
X588Y335D01*
X588Y336D01*
Y336D01*
X588Y336D01*
X588Y336D01*
X588Y336D01*
X589Y337D01*
X589Y338D01*
X590Y339D01*
X590Y340D01*
X590Y341D01*
X590Y343D01*
Y343D01*
Y343D01*
Y343D01*
X590Y343D01*
Y344D01*
X590Y344D01*
X590Y345D01*
X590Y346D01*
X589Y347D01*
X589Y348D01*
X588Y349D01*
X588Y349D01*
X588Y349D01*
X587Y350D01*
X587Y350D01*
X586Y351D01*
X585Y351D01*
X584Y351D01*
X582Y351D01*
X582D01*
X581Y351D01*
X581Y351D01*
X580Y351D01*
X580Y351D01*
X579Y351D01*
X578Y350D01*
X578Y350D01*
X578Y350D01*
X577Y350D01*
X577Y350D01*
X577Y349D01*
X576Y349D01*
X576Y348D01*
X575Y348D01*
X571Y348D01*
X575Y368D01*
X594D01*
Y363D01*
D02*
G37*
G36*
X613Y368D02*
X614Y368D01*
X615Y368D01*
X616Y368D01*
X617Y368D01*
X618Y367D01*
X618D01*
X618Y367D01*
X618Y367D01*
X619Y367D01*
X619Y366D01*
X620Y366D01*
X620Y365D01*
X621Y364D01*
X622Y363D01*
X622Y363D01*
X622Y363D01*
X622Y363D01*
X622Y362D01*
X623Y361D01*
X623Y360D01*
X623Y360D01*
X623Y359D01*
Y358D01*
Y358D01*
X623Y358D01*
X623Y357D01*
X623Y356D01*
X623Y356D01*
X622Y355D01*
X622Y354D01*
X622Y354D01*
X622Y354D01*
X621Y353D01*
X621Y353D01*
X620Y352D01*
X620Y352D01*
X619Y351D01*
X618Y351D01*
X618D01*
X618Y351D01*
X618Y351D01*
X618Y351D01*
X619Y350D01*
X620Y350D01*
X621Y350D01*
X621Y349D01*
X622Y348D01*
X623Y348D01*
X623Y347D01*
X623Y347D01*
X624Y347D01*
X624Y346D01*
X624Y345D01*
X625Y344D01*
X625Y343D01*
X625Y341D01*
Y341D01*
Y341D01*
Y341D01*
X625Y341D01*
X625Y340D01*
X625Y340D01*
X625Y339D01*
X625Y338D01*
X624Y337D01*
X624Y336D01*
X623Y336D01*
X623Y335D01*
X623Y334D01*
X622Y334D01*
X621Y333D01*
X621Y333D01*
X621Y333D01*
X621Y333D01*
X621Y332D01*
X620Y332D01*
X620Y332D01*
X619Y331D01*
X619Y331D01*
X618Y331D01*
X617Y330D01*
X617Y330D01*
X616Y330D01*
X615Y330D01*
X614Y330D01*
X613Y329D01*
X612Y329D01*
X612D01*
X611Y329D01*
X611Y329D01*
X610Y330D01*
X610Y330D01*
X609Y330D01*
X608Y330D01*
X606Y331D01*
X606Y331D01*
X605Y331D01*
X604Y332D01*
X604Y332D01*
X604Y332D01*
X603Y332D01*
X603Y333D01*
X603Y333D01*
X603Y333D01*
X603Y334D01*
X602Y334D01*
X602Y334D01*
X601Y336D01*
X601Y337D01*
X600Y339D01*
X600Y339D01*
X600Y340D01*
X605Y341D01*
Y341D01*
X605Y341D01*
X605Y340D01*
X605Y340D01*
X605Y340D01*
X605Y339D01*
X605Y339D01*
X606Y338D01*
X606Y337D01*
X607Y336D01*
X607Y335D01*
X607Y335D01*
X608Y335D01*
X608Y334D01*
X609Y334D01*
X609Y334D01*
X610Y334D01*
X611Y333D01*
X612Y333D01*
X612D01*
X613Y333D01*
X613Y333D01*
X614Y334D01*
X615Y334D01*
X616Y334D01*
X617Y335D01*
X618Y336D01*
X618Y336D01*
X618Y336D01*
X618Y336D01*
X619Y337D01*
X619Y338D01*
X620Y339D01*
X620Y340D01*
X620Y341D01*
Y341D01*
Y341D01*
Y342D01*
X620Y342D01*
X620Y342D01*
X620Y343D01*
X619Y344D01*
X619Y345D01*
X619Y346D01*
X618Y347D01*
X618Y347D01*
X617Y347D01*
X617Y347D01*
X616Y348D01*
X616Y348D01*
X615Y348D01*
X614Y349D01*
X612Y349D01*
X612D01*
X612Y349D01*
X611Y349D01*
X611Y348D01*
X610Y348D01*
X609Y348D01*
X610Y352D01*
X610D01*
X610Y352D01*
X611D01*
X611Y352D01*
X612Y352D01*
X613Y353D01*
X614Y353D01*
X615Y353D01*
X616Y354D01*
X616D01*
X616Y354D01*
X616Y354D01*
X617Y354D01*
X617Y355D01*
X617Y356D01*
X618Y357D01*
X618Y358D01*
X618Y358D01*
Y359D01*
Y359D01*
Y359D01*
Y359D01*
X618Y360D01*
X618Y360D01*
X618Y361D01*
X618Y362D01*
X617Y362D01*
X617Y363D01*
X616Y363D01*
X616Y363D01*
X616Y364D01*
X615Y364D01*
X615Y364D01*
X614Y364D01*
X613Y365D01*
X612Y365D01*
X611D01*
X611Y365D01*
X610Y364D01*
X610Y364D01*
X609Y364D01*
X608Y363D01*
X607Y363D01*
X607Y363D01*
X607Y363D01*
X607Y362D01*
X606Y362D01*
X606Y361D01*
X606Y360D01*
X605Y359D01*
X605Y358D01*
X600Y359D01*
Y359D01*
X600Y359D01*
X600Y359D01*
X600Y359D01*
X601Y360D01*
X601Y360D01*
X601Y361D01*
X602Y362D01*
X602Y364D01*
X603Y365D01*
X604Y366D01*
X604Y366D01*
X604Y366D01*
X605Y366D01*
X605Y366D01*
X605Y367D01*
X605Y367D01*
X606Y367D01*
X606Y367D01*
X607Y368D01*
X609Y368D01*
X610Y368D01*
X611Y369D01*
X612D01*
X613Y368D01*
D02*
G37*
G36*
X440Y364D02*
X440Y364D01*
X440Y364D01*
X440Y364D01*
X439Y364D01*
X439Y363D01*
X439Y363D01*
X438Y362D01*
X438Y361D01*
X437Y361D01*
X436Y360D01*
X436Y359D01*
X435Y358D01*
X435Y357D01*
X434Y356D01*
X433Y355D01*
X433Y354D01*
X433Y354D01*
X432Y354D01*
X432Y353D01*
X432Y353D01*
X432Y352D01*
X431Y351D01*
X431Y351D01*
X431Y350D01*
X430Y349D01*
X430Y348D01*
X429Y347D01*
X429Y345D01*
X428Y343D01*
X427Y341D01*
Y341D01*
X427Y340D01*
X427Y340D01*
X427Y340D01*
X427Y339D01*
X427Y339D01*
X426Y338D01*
X426Y337D01*
X426Y337D01*
X426Y336D01*
X426Y334D01*
X425Y332D01*
X425Y330D01*
X420D01*
Y330D01*
Y330D01*
Y330D01*
X420Y331D01*
Y331D01*
X420Y332D01*
X421Y332D01*
X421Y333D01*
X421Y334D01*
X421Y335D01*
X421Y336D01*
X421Y337D01*
X421Y338D01*
X422Y339D01*
X422Y341D01*
Y341D01*
X422Y341D01*
X422Y342D01*
X422Y342D01*
X423Y343D01*
X423Y343D01*
X423Y344D01*
X423Y345D01*
X424Y346D01*
X424Y347D01*
X425Y349D01*
X426Y351D01*
X427Y353D01*
X427Y353D01*
X427Y354D01*
X427Y354D01*
X428Y354D01*
X428Y355D01*
X428Y355D01*
X429Y356D01*
X429Y357D01*
X430Y358D01*
X431Y360D01*
X433Y362D01*
X434Y363D01*
X415D01*
Y368D01*
X440D01*
Y364D01*
D02*
G37*
G36*
X464Y344D02*
X470D01*
Y339D01*
X464D01*
Y330D01*
X460D01*
Y339D01*
X443D01*
Y344D01*
X461Y368D01*
X464D01*
Y344D01*
D02*
G37*
G36*
X481Y335D02*
X500D01*
Y330D01*
X476D01*
Y368D01*
X481D01*
Y335D01*
D02*
G37*
G36*
X1429Y363D02*
X1430D01*
X1430Y363D01*
X1431Y363D01*
X1432Y363D01*
X1434Y362D01*
X1435Y362D01*
X1435Y361D01*
X1436Y361D01*
X1436D01*
X1436Y361D01*
X1436Y361D01*
X1436Y361D01*
X1437Y360D01*
X1438Y359D01*
X1438Y358D01*
X1439Y357D01*
X1439Y356D01*
X1440Y354D01*
X1435Y354D01*
Y354D01*
X1435Y354D01*
X1435Y354D01*
X1435Y355D01*
X1434Y355D01*
X1434Y356D01*
X1434Y356D01*
X1433Y357D01*
X1433Y358D01*
X1433Y358D01*
X1433Y358D01*
X1432Y358D01*
X1432Y359D01*
X1431Y359D01*
X1430Y359D01*
X1429Y360D01*
X1428Y360D01*
X1428D01*
X1427Y360D01*
X1427Y359D01*
X1426Y359D01*
X1426Y359D01*
X1425Y359D01*
X1424Y358D01*
X1424Y358D01*
X1424Y358D01*
X1423Y358D01*
X1423Y357D01*
X1422Y357D01*
X1422Y356D01*
X1421Y355D01*
X1421Y354D01*
Y354D01*
X1421Y353D01*
X1421Y353D01*
X1421Y353D01*
X1420Y353D01*
X1420Y352D01*
X1420Y352D01*
X1420Y351D01*
X1420Y351D01*
X1420Y350D01*
X1420Y349D01*
X1420Y349D01*
X1420Y348D01*
X1419Y347D01*
X1419Y346D01*
Y345D01*
X1419Y345D01*
X1420Y345D01*
X1420Y346D01*
X1421Y346D01*
X1421Y347D01*
X1422Y347D01*
X1423Y348D01*
X1424Y349D01*
X1424D01*
X1424Y349D01*
X1424Y349D01*
X1424Y349D01*
X1425Y349D01*
X1426Y349D01*
X1427Y350D01*
X1428Y350D01*
X1429Y350D01*
X1429D01*
X1430Y350D01*
X1430Y350D01*
X1430Y350D01*
X1432Y349D01*
X1433Y349D01*
X1433Y349D01*
X1434Y348D01*
X1435Y348D01*
X1435Y348D01*
X1436Y347D01*
X1437Y346D01*
X1437Y346D01*
X1437Y346D01*
X1437Y346D01*
X1437Y346D01*
X1438Y345D01*
X1438Y345D01*
X1438Y345D01*
X1438Y344D01*
X1439Y343D01*
X1439Y343D01*
X1439Y342D01*
X1440Y341D01*
X1440Y340D01*
X1440Y339D01*
X1440Y338D01*
X1440Y337D01*
Y337D01*
Y337D01*
Y337D01*
Y337D01*
X1440Y337D01*
Y336D01*
X1440Y335D01*
X1440Y334D01*
X1439Y333D01*
X1439Y332D01*
X1439Y331D01*
Y331D01*
X1438Y331D01*
X1438Y330D01*
X1438Y330D01*
X1438Y330D01*
X1437Y329D01*
X1437Y328D01*
X1436Y327D01*
X1435Y327D01*
X1434Y326D01*
X1434D01*
X1434Y326D01*
X1434Y326D01*
X1434Y326D01*
X1433Y325D01*
X1432Y325D01*
X1432Y325D01*
X1431Y325D01*
X1429Y324D01*
X1428Y324D01*
X1428D01*
X1428Y324D01*
X1427D01*
X1427Y324D01*
X1426Y325D01*
X1425Y325D01*
X1425Y325D01*
X1424Y325D01*
X1423Y325D01*
X1422Y326D01*
X1422Y326D01*
X1421Y327D01*
X1420Y327D01*
X1419Y328D01*
X1418Y329D01*
X1418Y329D01*
X1418Y329D01*
X1418Y329D01*
X1418Y330D01*
X1418Y330D01*
X1417Y331D01*
X1417Y331D01*
X1417Y332D01*
X1416Y333D01*
X1416Y334D01*
X1416Y335D01*
X1415Y337D01*
X1415Y338D01*
X1415Y339D01*
X1415Y341D01*
X1415Y343D01*
Y343D01*
Y343D01*
Y343D01*
Y343D01*
X1415Y344D01*
Y345D01*
X1415Y346D01*
X1415Y347D01*
X1415Y348D01*
X1415Y349D01*
X1415Y350D01*
X1416Y352D01*
X1416Y353D01*
X1416Y354D01*
X1417Y356D01*
X1417Y357D01*
X1418Y358D01*
X1419Y359D01*
X1419Y359D01*
X1419Y359D01*
X1419Y360D01*
X1420Y360D01*
X1420Y360D01*
X1420Y361D01*
X1421Y361D01*
X1421Y361D01*
X1422Y362D01*
X1423Y362D01*
X1424Y363D01*
X1424Y363D01*
X1425Y363D01*
X1426Y363D01*
X1427Y363D01*
X1429Y364D01*
X1429D01*
X1429Y363D01*
D02*
G37*
G36*
X280Y1060D02*
X281Y1060D01*
X282Y1060D01*
X283Y1059D01*
X284Y1059D01*
X285Y1058D01*
X285D01*
X285Y1058D01*
X285Y1058D01*
X286Y1058D01*
X287Y1057D01*
X287Y1056D01*
X288Y1055D01*
X289Y1054D01*
X289Y1053D01*
Y1053D01*
X289Y1053D01*
X289Y1053D01*
X289Y1053D01*
X289Y1052D01*
X290Y1052D01*
X290Y1051D01*
X290Y1050D01*
X290Y1049D01*
X291Y1047D01*
X291Y1046D01*
Y1046D01*
Y1046D01*
Y1045D01*
Y1045D01*
X291Y1045D01*
Y1044D01*
X291Y1043D01*
X290Y1043D01*
X290Y1041D01*
X290Y1040D01*
X290Y1038D01*
X289Y1037D01*
Y1037D01*
X289Y1037D01*
X289Y1037D01*
X289Y1037D01*
X289Y1036D01*
X288Y1035D01*
X287Y1034D01*
X287Y1033D01*
X286Y1032D01*
X285Y1032D01*
X285D01*
X284Y1032D01*
X284Y1031D01*
X284Y1031D01*
X284Y1031D01*
X283Y1031D01*
X283Y1031D01*
X281Y1030D01*
X280Y1030D01*
X279Y1030D01*
X278Y1030D01*
X277Y1034D01*
X277D01*
X278Y1034D01*
X278Y1035D01*
X279Y1035D01*
X280Y1035D01*
X280Y1035D01*
X281Y1035D01*
X282Y1036D01*
X282Y1036D01*
X282Y1036D01*
X283Y1036D01*
X283Y1037D01*
X284Y1037D01*
X284Y1038D01*
X285Y1039D01*
X285Y1040D01*
Y1040D01*
X285Y1040D01*
X285Y1040D01*
X285Y1041D01*
X286Y1041D01*
X286Y1042D01*
X286Y1043D01*
X286Y1044D01*
X286Y1046D01*
Y1046D01*
Y1046D01*
Y1046D01*
Y1046D01*
X286Y1047D01*
X286Y1047D01*
X286Y1048D01*
X286Y1049D01*
X286Y1050D01*
X285Y1051D01*
X285Y1051D01*
X285Y1051D01*
X285Y1051D01*
X285Y1052D01*
X284Y1052D01*
X284Y1053D01*
X283Y1054D01*
X283Y1054D01*
X283Y1054D01*
X283Y1054D01*
X282Y1054D01*
X282Y1055D01*
X281Y1055D01*
X281Y1055D01*
X280Y1055D01*
X280Y1055D01*
X279D01*
X279Y1055D01*
X279Y1055D01*
X278Y1055D01*
X277Y1055D01*
X277Y1054D01*
X276Y1054D01*
X276Y1054D01*
X276Y1054D01*
X276Y1054D01*
X276Y1053D01*
X275Y1053D01*
X275Y1052D01*
X275Y1052D01*
X274Y1051D01*
X274Y1051D01*
X274Y1050D01*
X274Y1050D01*
X274Y1050D01*
X274Y1049D01*
X274Y1049D01*
X273Y1048D01*
X273Y1048D01*
X273Y1047D01*
X273Y1046D01*
X273Y1046D01*
X273Y1045D01*
X272Y1044D01*
Y1044D01*
X272Y1044D01*
X272Y1043D01*
X272Y1043D01*
X272Y1042D01*
X272Y1042D01*
X271Y1041D01*
X271Y1040D01*
X271Y1038D01*
X270Y1037D01*
X270Y1037D01*
X270Y1036D01*
Y1036D01*
X270Y1036D01*
X270Y1036D01*
X269Y1035D01*
X269Y1035D01*
X268Y1034D01*
X268Y1033D01*
X267Y1033D01*
X266Y1032D01*
X266Y1032D01*
X266Y1032D01*
X266Y1032D01*
X265Y1032D01*
X264Y1031D01*
X263Y1031D01*
X262Y1031D01*
X262Y1031D01*
X261D01*
X260Y1031D01*
X260Y1031D01*
X259Y1031D01*
X258Y1032D01*
X257Y1032D01*
X256Y1033D01*
X256D01*
X256Y1033D01*
X256Y1033D01*
X255Y1033D01*
X255Y1034D01*
X254Y1035D01*
X253Y1035D01*
X253Y1036D01*
X252Y1037D01*
Y1037D01*
X252Y1038D01*
X252Y1038D01*
X252Y1038D01*
X252Y1038D01*
X252Y1039D01*
X252Y1039D01*
X251Y1041D01*
X251Y1042D01*
X251Y1043D01*
X251Y1044D01*
Y1044D01*
Y1045D01*
Y1045D01*
Y1045D01*
X251Y1046D01*
Y1046D01*
X251Y1047D01*
X251Y1048D01*
X252Y1049D01*
X252Y1051D01*
X252Y1052D01*
Y1052D01*
X252Y1052D01*
X252Y1052D01*
X253Y1053D01*
X253Y1053D01*
X253Y1054D01*
X254Y1055D01*
X255Y1056D01*
X255Y1056D01*
X256Y1057D01*
X256Y1057D01*
X257Y1057D01*
X257Y1058D01*
X258Y1058D01*
X259Y1058D01*
X260Y1059D01*
X261Y1059D01*
X262Y1059D01*
X263Y1054D01*
X263D01*
X262Y1054D01*
X262Y1054D01*
X261Y1054D01*
X261Y1054D01*
X260Y1053D01*
X259Y1053D01*
X258Y1052D01*
X257Y1051D01*
X257Y1051D01*
X257Y1051D01*
X257Y1050D01*
X256Y1050D01*
X256Y1049D01*
X256Y1048D01*
X255Y1046D01*
X255Y1045D01*
Y1045D01*
Y1044D01*
Y1044D01*
Y1044D01*
X255Y1044D01*
X256Y1043D01*
X256Y1042D01*
X256Y1041D01*
X256Y1040D01*
X257Y1039D01*
X257Y1038D01*
X257Y1038D01*
X257Y1038D01*
X257Y1038D01*
X258Y1037D01*
X258Y1037D01*
X259Y1037D01*
X260Y1036D01*
X260Y1036D01*
X261Y1036D01*
X262D01*
X262Y1036D01*
X262Y1036D01*
X263Y1036D01*
X264Y1036D01*
X264Y1037D01*
X265Y1037D01*
X265Y1037D01*
X265Y1038D01*
X265Y1038D01*
X265Y1038D01*
X265Y1038D01*
X265Y1039D01*
X266Y1039D01*
X266Y1040D01*
X266Y1040D01*
X266Y1041D01*
X267Y1042D01*
X267Y1043D01*
X267Y1044D01*
X267Y1045D01*
Y1045D01*
X267Y1045D01*
X268Y1046D01*
X268Y1046D01*
X268Y1047D01*
X268Y1047D01*
X268Y1048D01*
X269Y1050D01*
X269Y1051D01*
X269Y1052D01*
X269Y1052D01*
X270Y1053D01*
X270Y1054D01*
Y1054D01*
X270Y1054D01*
X270Y1054D01*
X270Y1054D01*
X270Y1055D01*
X271Y1055D01*
X271Y1056D01*
X272Y1057D01*
X273Y1058D01*
X274Y1058D01*
X274Y1059D01*
X274Y1059D01*
X275Y1059D01*
X275Y1059D01*
X276Y1060D01*
X277Y1060D01*
X278Y1060D01*
X279Y1060D01*
X280D01*
X280Y1060D01*
D02*
G37*
G36*
X290Y1078D02*
X260D01*
X260Y1078D01*
X260Y1078D01*
X261Y1077D01*
X261Y1077D01*
X262Y1076D01*
X262Y1075D01*
X263Y1075D01*
X263Y1074D01*
Y1074D01*
X263Y1074D01*
X264Y1073D01*
X264Y1073D01*
X264Y1072D01*
X265Y1071D01*
X265Y1070D01*
X265Y1070D01*
X266Y1069D01*
X261D01*
Y1069D01*
X261Y1069D01*
X261Y1069D01*
X261Y1069D01*
X261Y1070D01*
X260Y1070D01*
X260Y1071D01*
X259Y1072D01*
X258Y1073D01*
X258Y1074D01*
X257Y1076D01*
X257Y1076D01*
X257Y1076D01*
X256Y1076D01*
X256Y1077D01*
X255Y1077D01*
X254Y1078D01*
X253Y1079D01*
X252Y1079D01*
X251Y1080D01*
Y1083D01*
X290D01*
Y1078D01*
D02*
G37*
G36*
Y1094D02*
X289D01*
X289Y1094D01*
X288Y1094D01*
X288Y1095D01*
X287Y1095D01*
X287Y1095D01*
X287D01*
X287Y1095D01*
X286Y1095D01*
X286Y1095D01*
X285Y1096D01*
X284Y1096D01*
X283Y1097D01*
X283Y1097D01*
X282Y1098D01*
X282D01*
X282Y1098D01*
X281Y1098D01*
X281Y1099D01*
X280Y1100D01*
X279Y1100D01*
X278Y1101D01*
X277Y1103D01*
X276Y1104D01*
X276Y1104D01*
X276Y1104D01*
X275Y1105D01*
X275Y1105D01*
X275Y1106D01*
X274Y1106D01*
X273Y1108D01*
X272Y1109D01*
X270Y1110D01*
X270Y1111D01*
X269Y1112D01*
X268Y1112D01*
X268Y1113D01*
X268D01*
X268Y1113D01*
X267Y1113D01*
X267Y1113D01*
X267Y1113D01*
X266Y1114D01*
X265Y1114D01*
X264Y1114D01*
X263Y1115D01*
X262Y1115D01*
X262D01*
X262Y1115D01*
X261Y1115D01*
X260Y1115D01*
X260Y1114D01*
X259Y1114D01*
X258Y1113D01*
X257Y1113D01*
X257Y1113D01*
X257Y1112D01*
X257Y1112D01*
X256Y1111D01*
X256Y1111D01*
X256Y1110D01*
X255Y1109D01*
X255Y1108D01*
Y1108D01*
Y1107D01*
Y1107D01*
X255Y1107D01*
X255Y1106D01*
X256Y1106D01*
X256Y1105D01*
X256Y1104D01*
X257Y1103D01*
X257Y1102D01*
X258Y1102D01*
X258Y1102D01*
X258Y1101D01*
X259Y1101D01*
X260Y1101D01*
X261Y1100D01*
X262Y1100D01*
X263Y1100D01*
X263Y1095D01*
X262D01*
X262Y1095D01*
X262Y1095D01*
X261Y1095D01*
X261Y1096D01*
X260Y1096D01*
X258Y1096D01*
X257Y1097D01*
X256Y1097D01*
X256Y1098D01*
X255Y1098D01*
X254Y1099D01*
X254Y1099D01*
X254Y1099D01*
X254Y1099D01*
X254Y1100D01*
X254Y1100D01*
X253Y1100D01*
X253Y1101D01*
X253Y1101D01*
X253Y1102D01*
X252Y1103D01*
X252Y1103D01*
X252Y1104D01*
X252Y1105D01*
X252Y1106D01*
X252Y1107D01*
X251Y1108D01*
Y1108D01*
Y1108D01*
Y1108D01*
X252Y1109D01*
X252Y1109D01*
X252Y1110D01*
X252Y1110D01*
X252Y1111D01*
X252Y1112D01*
X253Y1114D01*
X253Y1114D01*
X254Y1115D01*
X254Y1116D01*
X255Y1116D01*
X255Y1116D01*
X255Y1117D01*
X255Y1117D01*
X255Y1117D01*
X255Y1117D01*
X256Y1117D01*
X256Y1118D01*
X257Y1118D01*
X258Y1119D01*
X259Y1119D01*
X260Y1119D01*
X261Y1120D01*
X261Y1120D01*
X262Y1120D01*
X263D01*
X263Y1120D01*
X264Y1120D01*
X264Y1119D01*
X265Y1119D01*
X266Y1119D01*
X267Y1119D01*
X267Y1119D01*
X267Y1119D01*
X268Y1118D01*
X268Y1118D01*
X269Y1118D01*
X270Y1117D01*
X270Y1116D01*
X271Y1116D01*
X271Y1115D01*
X272Y1115D01*
X272Y1115D01*
X272Y1115D01*
X273Y1114D01*
X273Y1114D01*
X274Y1113D01*
X274Y1113D01*
X275Y1112D01*
X275Y1112D01*
X276Y1111D01*
X277Y1110D01*
X277Y1109D01*
X278Y1108D01*
X278Y1108D01*
X278Y1108D01*
X278Y1108D01*
X279Y1108D01*
X279Y1107D01*
X280Y1106D01*
X281Y1105D01*
X282Y1104D01*
X282Y1103D01*
X283Y1103D01*
X283Y1103D01*
X283Y1103D01*
X283Y1103D01*
X283Y1103D01*
X284Y1102D01*
X284Y1102D01*
X285Y1102D01*
X285Y1101D01*
Y1120D01*
X290D01*
Y1094D01*
D02*
G37*
G36*
X256Y965D02*
X256Y965D01*
X256Y965D01*
X256Y964D01*
X257Y964D01*
X257Y964D01*
X258Y963D01*
X259Y963D01*
X259Y962D01*
X260Y961D01*
X261Y961D01*
X262Y960D01*
X263Y960D01*
X264Y959D01*
X265Y958D01*
X266Y958D01*
X266Y958D01*
X266Y957D01*
X267Y957D01*
X267Y957D01*
X268Y957D01*
X269Y956D01*
X269Y956D01*
X270Y956D01*
X271Y955D01*
X272Y955D01*
X273Y954D01*
X275Y954D01*
X277Y953D01*
X279Y952D01*
X279D01*
X280Y952D01*
X280Y952D01*
X280Y952D01*
X281Y952D01*
X281Y952D01*
X282Y951D01*
X283Y951D01*
X283Y951D01*
X284Y951D01*
X286Y951D01*
X288Y950D01*
X290Y950D01*
Y945D01*
X290D01*
X289Y945D01*
X289D01*
X288Y945D01*
X288Y946D01*
X287Y946D01*
X286Y946D01*
X285Y946D01*
X284Y946D01*
X283Y946D01*
X282Y946D01*
X281Y947D01*
X279Y947D01*
X279D01*
X279Y947D01*
X278Y947D01*
X278Y947D01*
X277Y948D01*
X277Y948D01*
X276Y948D01*
X275Y948D01*
X274Y949D01*
X273Y949D01*
X271Y950D01*
X269Y951D01*
X267Y952D01*
X267Y952D01*
X266Y952D01*
X266Y952D01*
X266Y953D01*
X265Y953D01*
X265Y953D01*
X264Y954D01*
X263Y954D01*
X262Y955D01*
X260Y956D01*
X258Y958D01*
X257Y959D01*
Y940D01*
X252D01*
Y965D01*
X256D01*
X256Y965D01*
D02*
G37*
G36*
X281Y989D02*
X290D01*
Y985D01*
X281D01*
Y968D01*
X276D01*
X252Y986D01*
Y989D01*
X276D01*
Y995D01*
X281D01*
Y989D01*
D02*
G37*
G36*
X290Y1001D02*
X252D01*
Y1006D01*
X285D01*
Y1025D01*
X290D01*
Y1001D01*
D02*
G37*
G36*
X1309Y339D02*
X1315D01*
Y334D01*
X1309D01*
Y325D01*
X1305D01*
Y334D01*
X1288D01*
Y339D01*
X1306Y363D01*
X1309D01*
Y339D01*
D02*
G37*
G36*
X1326Y330D02*
X1345D01*
Y325D01*
X1321D01*
Y363D01*
X1326D01*
Y330D01*
D02*
G37*
G36*
X1366Y364D02*
X1366D01*
X1367Y364D01*
X1368Y364D01*
X1369Y363D01*
X1371Y363D01*
X1372Y363D01*
X1372D01*
X1372Y363D01*
X1372Y363D01*
X1373Y362D01*
X1373Y362D01*
X1374Y362D01*
X1375Y361D01*
X1376Y360D01*
X1376Y360D01*
X1377Y359D01*
X1377Y359D01*
X1377Y358D01*
X1378Y358D01*
X1378Y357D01*
X1378Y356D01*
X1379Y355D01*
X1379Y354D01*
X1379Y353D01*
X1374Y352D01*
Y352D01*
Y352D01*
X1374Y353D01*
X1374Y353D01*
X1374Y354D01*
X1374Y354D01*
X1373Y355D01*
X1373Y356D01*
X1372Y357D01*
X1371Y358D01*
X1371Y358D01*
X1371Y358D01*
X1370Y358D01*
X1370Y359D01*
X1369Y359D01*
X1368Y359D01*
X1366Y360D01*
X1365Y360D01*
X1364D01*
X1364Y360D01*
X1363Y359D01*
X1362Y359D01*
X1361Y359D01*
X1360Y359D01*
X1359Y358D01*
X1358Y358D01*
X1358Y358D01*
X1358Y358D01*
X1358Y358D01*
X1357Y357D01*
X1357Y357D01*
X1357Y356D01*
X1356Y355D01*
X1356Y355D01*
X1356Y354D01*
Y354D01*
Y353D01*
X1356Y353D01*
X1356Y353D01*
X1356Y352D01*
X1356Y351D01*
X1357Y351D01*
X1357Y350D01*
X1357Y350D01*
X1358Y350D01*
X1358Y350D01*
X1358Y350D01*
X1358Y350D01*
X1359Y350D01*
X1359Y349D01*
X1360Y349D01*
X1360Y349D01*
X1361Y349D01*
X1362Y348D01*
X1363Y348D01*
X1364Y348D01*
X1365Y348D01*
X1365D01*
X1365Y348D01*
X1366Y347D01*
X1366Y347D01*
X1367Y347D01*
X1367Y347D01*
X1368Y347D01*
X1370Y346D01*
X1371Y346D01*
X1372Y346D01*
X1372Y346D01*
X1373Y345D01*
X1374Y345D01*
X1374D01*
X1374Y345D01*
X1374Y345D01*
X1374Y345D01*
X1375Y345D01*
X1375Y344D01*
X1376Y344D01*
X1377Y343D01*
X1378Y342D01*
X1378Y341D01*
X1379Y341D01*
X1379Y341D01*
X1379Y340D01*
X1379Y340D01*
X1380Y339D01*
X1380Y338D01*
X1380Y337D01*
X1380Y336D01*
Y336D01*
Y336D01*
Y336D01*
Y335D01*
X1380Y335D01*
X1380Y334D01*
X1380Y333D01*
X1379Y332D01*
X1379Y331D01*
X1378Y330D01*
Y330D01*
X1378Y330D01*
X1378Y330D01*
X1378Y329D01*
X1377Y328D01*
X1376Y328D01*
X1375Y327D01*
X1374Y326D01*
X1373Y326D01*
X1373D01*
X1373Y326D01*
X1373Y326D01*
X1373Y326D01*
X1372Y326D01*
X1372Y325D01*
X1371Y325D01*
X1370Y325D01*
X1369Y325D01*
X1367Y324D01*
X1366Y324D01*
X1365D01*
X1365Y324D01*
X1364D01*
X1363Y324D01*
X1363Y325D01*
X1361Y325D01*
X1360Y325D01*
X1358Y325D01*
X1357Y326D01*
X1357D01*
X1357Y326D01*
X1357Y326D01*
X1357Y326D01*
X1356Y326D01*
X1355Y327D01*
X1354Y328D01*
X1353Y328D01*
X1352Y329D01*
X1352Y330D01*
Y330D01*
X1352Y331D01*
X1351Y331D01*
X1351Y331D01*
X1351Y331D01*
X1351Y332D01*
X1351Y332D01*
X1350Y334D01*
X1350Y335D01*
X1350Y336D01*
X1350Y337D01*
X1354Y338D01*
Y338D01*
Y338D01*
X1354Y337D01*
X1355Y337D01*
X1355Y336D01*
X1355Y335D01*
X1355Y335D01*
X1355Y334D01*
X1356Y333D01*
X1356Y333D01*
X1356Y333D01*
X1356Y332D01*
X1357Y332D01*
X1357Y331D01*
X1358Y331D01*
X1359Y330D01*
X1360Y330D01*
X1360D01*
X1360Y330D01*
X1360Y330D01*
X1361Y330D01*
X1361Y329D01*
X1362Y329D01*
X1363Y329D01*
X1364Y329D01*
X1366Y329D01*
X1366D01*
X1367Y329D01*
X1367Y329D01*
X1368Y329D01*
X1369Y329D01*
X1370Y329D01*
X1371Y330D01*
X1371Y330D01*
X1371Y330D01*
X1371Y330D01*
X1372Y330D01*
X1372Y331D01*
X1373Y331D01*
X1374Y332D01*
X1374Y332D01*
X1374Y332D01*
X1374Y332D01*
X1374Y333D01*
X1375Y333D01*
X1375Y334D01*
X1375Y334D01*
X1375Y335D01*
X1375Y335D01*
Y335D01*
Y336D01*
X1375Y336D01*
X1375Y336D01*
X1375Y337D01*
X1375Y338D01*
X1374Y338D01*
X1374Y339D01*
X1374Y339D01*
X1374Y339D01*
X1374Y339D01*
X1373Y339D01*
X1373Y340D01*
X1372Y340D01*
X1372Y340D01*
X1371Y341D01*
X1371Y341D01*
X1370Y341D01*
X1370Y341D01*
X1370Y341D01*
X1369Y341D01*
X1369Y341D01*
X1368Y342D01*
X1368Y342D01*
X1367Y342D01*
X1366Y342D01*
X1366Y342D01*
X1365Y342D01*
X1364Y343D01*
X1364D01*
X1364Y343D01*
X1363Y343D01*
X1363Y343D01*
X1362Y343D01*
X1362Y343D01*
X1361Y343D01*
X1360Y344D01*
X1358Y344D01*
X1357Y345D01*
X1357Y345D01*
X1356Y345D01*
X1356D01*
X1356Y345D01*
X1356Y345D01*
X1355Y346D01*
X1355Y346D01*
X1354Y347D01*
X1353Y347D01*
X1353Y348D01*
X1352Y349D01*
X1352Y349D01*
X1352Y349D01*
X1352Y349D01*
X1352Y350D01*
X1351Y351D01*
X1351Y352D01*
X1351Y353D01*
X1351Y353D01*
Y354D01*
Y354D01*
Y354D01*
Y354D01*
X1351Y355D01*
X1351Y355D01*
X1351Y356D01*
X1352Y357D01*
X1352Y358D01*
X1353Y359D01*
Y359D01*
X1353Y359D01*
X1353Y359D01*
X1353Y360D01*
X1354Y360D01*
X1355Y361D01*
X1355Y362D01*
X1356Y362D01*
X1357Y363D01*
X1357D01*
X1358Y363D01*
X1358Y363D01*
X1358Y363D01*
X1358Y363D01*
X1359Y363D01*
X1359Y363D01*
X1361Y364D01*
X1362Y364D01*
X1363Y364D01*
X1364Y364D01*
X1365D01*
X1366Y364D01*
D02*
G37*
G36*
X278Y1150D02*
X278Y1150D01*
X279Y1150D01*
X279Y1150D01*
X280Y1150D01*
X281Y1150D01*
X283Y1149D01*
X284Y1149D01*
X285Y1148D01*
X285Y1148D01*
X286Y1147D01*
X286Y1147D01*
X286Y1147D01*
X286Y1147D01*
X287Y1147D01*
X287Y1146D01*
X287Y1146D01*
X288Y1145D01*
X288Y1145D01*
X289Y1144D01*
X289Y1143D01*
X290Y1142D01*
X290Y1141D01*
X290Y1140D01*
X290Y1139D01*
X291Y1138D01*
X291Y1137D01*
Y1137D01*
Y1137D01*
Y1137D01*
X291Y1136D01*
X291Y1136D01*
X290Y1135D01*
X290Y1135D01*
X290Y1134D01*
X290Y1133D01*
X289Y1131D01*
X289Y1131D01*
X289Y1130D01*
X288Y1129D01*
X288Y1129D01*
X288Y1129D01*
X288Y1128D01*
X287Y1128D01*
X287Y1128D01*
X287Y1128D01*
X287Y1128D01*
X286Y1127D01*
X286Y1127D01*
X285Y1127D01*
X285Y1126D01*
X283Y1126D01*
X282Y1125D01*
X281Y1125D01*
X280Y1125D01*
X280Y1130D01*
X280D01*
X280Y1130D01*
X280Y1130D01*
X281Y1130D01*
X282Y1130D01*
X282Y1131D01*
X283Y1131D01*
X284Y1132D01*
X285Y1132D01*
X285Y1132D01*
X285Y1133D01*
X286Y1133D01*
X286Y1134D01*
X286Y1134D01*
X286Y1135D01*
X287Y1136D01*
X287Y1137D01*
Y1137D01*
Y1137D01*
Y1138D01*
X287Y1138D01*
X287Y1138D01*
X286Y1139D01*
X286Y1140D01*
X286Y1141D01*
X285Y1142D01*
X285Y1142D01*
X284Y1143D01*
X284D01*
X284Y1143D01*
X284Y1143D01*
X284Y1143D01*
X283Y1144D01*
X282Y1144D01*
X281Y1145D01*
X280Y1145D01*
X279Y1145D01*
X277Y1145D01*
X277D01*
X277Y1145D01*
X276D01*
X276Y1145D01*
X275Y1145D01*
X274Y1145D01*
X273Y1144D01*
X272Y1144D01*
X271Y1143D01*
X271Y1143D01*
X271Y1143D01*
X270Y1142D01*
X270Y1141D01*
X269Y1141D01*
X269Y1140D01*
X269Y1138D01*
X269Y1137D01*
Y1137D01*
Y1137D01*
X269Y1136D01*
X269Y1136D01*
X269Y1135D01*
X269Y1134D01*
X269Y1134D01*
X270Y1133D01*
X270Y1133D01*
X270Y1133D01*
X270Y1132D01*
X270Y1132D01*
X271Y1131D01*
X271Y1131D01*
X272Y1131D01*
X272Y1130D01*
X272Y1126D01*
X252Y1129D01*
Y1148D01*
X257D01*
Y1133D01*
X267Y1131D01*
X267Y1131D01*
X267Y1131D01*
X267Y1131D01*
X267Y1132D01*
X266Y1132D01*
X266Y1132D01*
X266Y1133D01*
X265Y1134D01*
X265Y1136D01*
X265Y1137D01*
X264Y1138D01*
Y1138D01*
Y1138D01*
Y1139D01*
Y1139D01*
X265Y1139D01*
X265Y1140D01*
X265Y1140D01*
X265Y1141D01*
X265Y1141D01*
X265Y1143D01*
X266Y1143D01*
X266Y1144D01*
X266Y1145D01*
X267Y1145D01*
X267Y1146D01*
X268Y1147D01*
X268Y1147D01*
X268Y1147D01*
X268Y1147D01*
X269Y1147D01*
X269Y1148D01*
X269Y1148D01*
X270Y1148D01*
X270Y1149D01*
X271Y1149D01*
X272Y1149D01*
X272Y1150D01*
X273Y1150D01*
X274Y1150D01*
X275Y1150D01*
X276Y1150D01*
X277Y1150D01*
X277D01*
X278Y1150D01*
D02*
G37*
G36*
X1398Y363D02*
X1399Y363D01*
X1399Y363D01*
X1401Y363D01*
X1402Y363D01*
X1403Y362D01*
X1404Y362D01*
X1404Y362D01*
X1405Y361D01*
X1406Y361D01*
X1406Y361D01*
X1406Y360D01*
X1406Y360D01*
X1406Y360D01*
X1406Y360D01*
X1407Y359D01*
X1407Y359D01*
X1408Y358D01*
X1408Y356D01*
X1409Y355D01*
X1409Y354D01*
X1409Y353D01*
Y353D01*
Y353D01*
Y353D01*
X1409Y353D01*
X1409Y352D01*
X1408Y351D01*
X1408Y350D01*
X1408Y350D01*
X1407Y349D01*
X1407Y349D01*
X1407Y348D01*
X1407Y348D01*
X1406Y348D01*
X1406Y347D01*
X1405Y347D01*
X1404Y346D01*
X1403Y346D01*
X1403D01*
X1403Y346D01*
X1403Y346D01*
X1404Y346D01*
X1404Y345D01*
X1405Y345D01*
X1406Y344D01*
X1407Y344D01*
X1408Y343D01*
X1409Y342D01*
X1409Y342D01*
X1409Y342D01*
X1409Y341D01*
X1409Y340D01*
X1410Y339D01*
X1410Y338D01*
X1410Y337D01*
X1410Y336D01*
Y336D01*
Y336D01*
Y336D01*
X1410Y335D01*
X1410Y335D01*
X1410Y334D01*
X1410Y334D01*
X1410Y333D01*
X1410Y332D01*
X1409Y331D01*
X1409Y330D01*
X1409Y330D01*
X1408Y329D01*
X1407Y328D01*
X1407Y328D01*
X1407Y328D01*
X1407Y328D01*
X1407Y327D01*
X1406Y327D01*
X1406Y327D01*
X1405Y327D01*
X1405Y326D01*
X1404Y326D01*
X1404Y326D01*
X1403Y325D01*
X1402Y325D01*
X1402Y325D01*
X1401Y325D01*
X1400Y325D01*
X1399Y324D01*
X1398Y324D01*
X1397D01*
X1397Y324D01*
X1396Y324D01*
X1396Y325D01*
X1395Y325D01*
X1394Y325D01*
X1393Y325D01*
X1392Y325D01*
X1391Y326D01*
X1391Y326D01*
X1390Y327D01*
X1389Y327D01*
X1389Y328D01*
X1388Y328D01*
X1388Y328D01*
X1388Y328D01*
X1388Y328D01*
X1388Y329D01*
X1387Y329D01*
X1387Y329D01*
X1387Y330D01*
X1386Y331D01*
X1386Y331D01*
X1386Y333D01*
X1385Y333D01*
X1385Y334D01*
X1385Y335D01*
X1385Y336D01*
Y336D01*
Y336D01*
Y336D01*
X1385Y337D01*
Y337D01*
X1385Y337D01*
X1385Y338D01*
X1386Y339D01*
X1386Y340D01*
X1386Y341D01*
X1387Y342D01*
Y342D01*
X1387Y342D01*
X1387Y343D01*
X1388Y343D01*
X1388Y344D01*
X1389Y344D01*
X1390Y345D01*
X1391Y345D01*
X1392Y346D01*
X1392D01*
X1392Y346D01*
X1392Y346D01*
X1391Y346D01*
X1391Y347D01*
X1390Y347D01*
X1389Y348D01*
X1389Y348D01*
X1388Y349D01*
X1388Y349D01*
X1388Y349D01*
X1388Y350D01*
X1387Y350D01*
X1387Y351D01*
X1387Y352D01*
X1387Y353D01*
X1387Y354D01*
Y354D01*
Y354D01*
Y354D01*
X1387Y354D01*
X1387Y355D01*
X1387Y355D01*
X1387Y356D01*
X1387Y357D01*
X1388Y358D01*
X1388Y359D01*
X1389Y360D01*
X1389Y360D01*
X1390Y361D01*
X1390Y361D01*
X1390Y361D01*
X1390Y361D01*
X1390Y361D01*
X1390Y361D01*
X1391Y362D01*
X1391Y362D01*
X1392Y362D01*
X1392Y362D01*
X1393Y363D01*
X1394Y363D01*
X1396Y363D01*
X1397Y363D01*
X1398Y364D01*
X1398D01*
X1398Y363D01*
D02*
G37*
G36*
X1285Y359D02*
X1285Y359D01*
X1285Y359D01*
X1285Y359D01*
X1284Y359D01*
X1284Y358D01*
X1284Y358D01*
X1283Y357D01*
X1283Y356D01*
X1282Y356D01*
X1281Y355D01*
X1281Y354D01*
X1280Y353D01*
X1280Y352D01*
X1279Y351D01*
X1278Y350D01*
X1278Y349D01*
X1278Y349D01*
X1277Y349D01*
X1277Y348D01*
X1277Y348D01*
X1277Y347D01*
X1276Y346D01*
X1276Y346D01*
X1276Y345D01*
X1275Y344D01*
X1275Y343D01*
X1274Y342D01*
X1274Y340D01*
X1273Y338D01*
X1272Y336D01*
Y336D01*
X1272Y335D01*
X1272Y335D01*
X1272Y335D01*
X1272Y334D01*
X1272Y334D01*
X1271Y333D01*
X1271Y332D01*
X1271Y332D01*
X1271Y331D01*
X1271Y329D01*
X1270Y327D01*
X1270Y325D01*
X1265D01*
Y325D01*
Y325D01*
Y325D01*
X1265Y326D01*
Y326D01*
X1265Y327D01*
X1266Y327D01*
X1266Y328D01*
X1266Y329D01*
X1266Y330D01*
X1266Y331D01*
X1266Y332D01*
X1266Y333D01*
X1267Y334D01*
X1267Y336D01*
Y336D01*
X1267Y336D01*
X1267Y337D01*
X1267Y337D01*
X1268Y338D01*
X1268Y338D01*
X1268Y339D01*
X1268Y340D01*
X1269Y341D01*
X1269Y342D01*
X1270Y344D01*
X1271Y346D01*
X1272Y348D01*
X1272Y348D01*
X1272Y349D01*
X1272Y349D01*
X1273Y349D01*
X1273Y350D01*
X1273Y350D01*
X1274Y351D01*
X1274Y352D01*
X1275Y353D01*
X1276Y355D01*
X1278Y357D01*
X1279Y358D01*
X1260D01*
Y363D01*
X1285D01*
Y359D01*
D02*
G37*
G36*
X521Y369D02*
X521D01*
X522Y369D01*
X523Y369D01*
X524Y368D01*
X526Y368D01*
X527Y368D01*
X527D01*
X527Y368D01*
X527Y368D01*
X528Y367D01*
X528Y367D01*
X529Y367D01*
X530Y366D01*
X531Y365D01*
X531Y365D01*
X532Y364D01*
X532Y364D01*
X532Y363D01*
X533Y363D01*
X533Y362D01*
X533Y361D01*
X534Y360D01*
X534Y359D01*
X534Y358D01*
X529Y357D01*
Y357D01*
Y357D01*
X529Y358D01*
X529Y358D01*
X529Y359D01*
X529Y359D01*
X528Y360D01*
X528Y361D01*
X527Y362D01*
X526Y363D01*
X526Y363D01*
X526Y363D01*
X525Y363D01*
X525Y364D01*
X524Y364D01*
X523Y364D01*
X521Y365D01*
X520Y365D01*
X519D01*
X519Y365D01*
X518Y364D01*
X517Y364D01*
X516Y364D01*
X515Y364D01*
X514Y363D01*
X513Y363D01*
X513Y363D01*
X513Y363D01*
X513Y363D01*
X512Y362D01*
X512Y362D01*
X512Y361D01*
X511Y360D01*
X511Y360D01*
X511Y359D01*
Y359D01*
Y358D01*
X511Y358D01*
X511Y358D01*
X511Y357D01*
X511Y356D01*
X512Y356D01*
X512Y355D01*
X512Y355D01*
X513Y355D01*
X513Y355D01*
X513Y355D01*
X513Y355D01*
X514Y355D01*
X514Y354D01*
X515Y354D01*
X515Y354D01*
X516Y354D01*
X517Y353D01*
X518Y353D01*
X519Y353D01*
X520Y353D01*
X520D01*
X520Y353D01*
X521Y352D01*
X521Y352D01*
X522Y352D01*
X522Y352D01*
X523Y352D01*
X525Y351D01*
X526Y351D01*
X527Y351D01*
X527Y351D01*
X528Y350D01*
X529Y350D01*
X529D01*
X529Y350D01*
X529Y350D01*
X529Y350D01*
X530Y350D01*
X530Y349D01*
X531Y349D01*
X532Y348D01*
X533Y347D01*
X533Y346D01*
X534Y346D01*
X534Y346D01*
X534Y345D01*
X534Y345D01*
X535Y344D01*
X535Y343D01*
X535Y342D01*
X535Y341D01*
Y341D01*
Y341D01*
Y341D01*
Y340D01*
X535Y340D01*
X535Y339D01*
X535Y338D01*
X534Y337D01*
X534Y336D01*
X533Y335D01*
Y335D01*
X533Y335D01*
X533Y335D01*
X533Y334D01*
X532Y333D01*
X531Y333D01*
X530Y332D01*
X529Y331D01*
X528Y331D01*
X528D01*
X528Y331D01*
X528Y331D01*
X528Y331D01*
X527Y331D01*
X527Y330D01*
X526Y330D01*
X525Y330D01*
X524Y330D01*
X522Y329D01*
X521Y329D01*
X520D01*
X520Y329D01*
X519D01*
X518Y329D01*
X518Y330D01*
X516Y330D01*
X515Y330D01*
X513Y330D01*
X512Y331D01*
X512D01*
X512Y331D01*
X512Y331D01*
X512Y331D01*
X511Y331D01*
X510Y332D01*
X509Y333D01*
X508Y333D01*
X507Y334D01*
X507Y335D01*
Y335D01*
X507Y336D01*
X506Y336D01*
X506Y336D01*
X506Y336D01*
X506Y337D01*
X506Y337D01*
X505Y339D01*
X505Y340D01*
X505Y341D01*
X505Y342D01*
X509Y343D01*
Y343D01*
Y343D01*
X509Y342D01*
X510Y342D01*
X510Y341D01*
X510Y340D01*
X510Y340D01*
X510Y339D01*
X511Y338D01*
X511Y338D01*
X511Y338D01*
X511Y337D01*
X512Y337D01*
X512Y336D01*
X513Y336D01*
X514Y335D01*
X515Y335D01*
X515D01*
X515Y335D01*
X515Y335D01*
X516Y335D01*
X516Y334D01*
X517Y334D01*
X518Y334D01*
X519Y334D01*
X521Y334D01*
X521D01*
X522Y334D01*
X522Y334D01*
X523Y334D01*
X524Y334D01*
X525Y334D01*
X526Y335D01*
X526Y335D01*
X526Y335D01*
X526Y335D01*
X527Y335D01*
X527Y336D01*
X528Y336D01*
X529Y337D01*
X529Y337D01*
X529Y337D01*
X529Y337D01*
X529Y338D01*
X530Y338D01*
X530Y339D01*
X530Y339D01*
X530Y340D01*
X530Y340D01*
Y340D01*
Y341D01*
X530Y341D01*
X530Y341D01*
X530Y342D01*
X530Y343D01*
X529Y343D01*
X529Y344D01*
X529Y344D01*
X529Y344D01*
X529Y344D01*
X528Y344D01*
X528Y345D01*
X527Y345D01*
X527Y345D01*
X526Y346D01*
X526Y346D01*
X525Y346D01*
X525Y346D01*
X525Y346D01*
X524Y346D01*
X524Y346D01*
X523Y347D01*
X523Y347D01*
X522Y347D01*
X521Y347D01*
X521Y347D01*
X520Y347D01*
X519Y348D01*
X519D01*
X519Y348D01*
X518Y348D01*
X518Y348D01*
X517Y348D01*
X517Y348D01*
X516Y349D01*
X515Y349D01*
X513Y349D01*
X512Y350D01*
X512Y350D01*
X511Y350D01*
X511D01*
X511Y350D01*
X511Y350D01*
X510Y351D01*
X510Y351D01*
X509Y352D01*
X508Y352D01*
X508Y353D01*
X507Y354D01*
X507Y354D01*
X507Y354D01*
X507Y354D01*
X507Y355D01*
X506Y356D01*
X506Y357D01*
X506Y358D01*
X506Y358D01*
Y359D01*
Y359D01*
Y359D01*
Y359D01*
X506Y360D01*
X506Y360D01*
X506Y361D01*
X507Y362D01*
X507Y363D01*
X508Y364D01*
Y364D01*
X508Y364D01*
X508Y364D01*
X508Y365D01*
X509Y365D01*
X510Y366D01*
X510Y367D01*
X511Y367D01*
X512Y368D01*
X512D01*
X513Y368D01*
X513Y368D01*
X513Y368D01*
X513Y368D01*
X514Y368D01*
X514Y368D01*
X516Y369D01*
X517Y369D01*
X518Y369D01*
X519Y369D01*
X520D01*
X521Y369D01*
D02*
G37*
G36*
X1851Y73D02*
X1846D01*
Y105D01*
X1835Y73D01*
X1830D01*
X1819Y105D01*
Y73D01*
X1815D01*
Y111D01*
X1822D01*
X1831Y84D01*
Y84D01*
X1831Y84D01*
X1831Y84D01*
X1831Y84D01*
X1831Y83D01*
X1832Y82D01*
X1832Y81D01*
X1832Y80D01*
X1833Y79D01*
X1833Y79D01*
X1833Y79D01*
X1833Y79D01*
X1833Y79D01*
X1833Y80D01*
X1834Y81D01*
X1834Y82D01*
X1834Y83D01*
X1835Y85D01*
X1844Y111D01*
X1851D01*
Y73D01*
D02*
G37*
G36*
X2162Y107D02*
X2149D01*
Y73D01*
X2144D01*
Y107D01*
X2132D01*
Y111D01*
X2162D01*
Y107D01*
D02*
G37*
G36*
X2311Y73D02*
X2307D01*
Y105D01*
X2296Y73D01*
X2291D01*
X2280Y105D01*
Y73D01*
X2275D01*
Y111D01*
X2283D01*
X2292Y84D01*
Y84D01*
X2292Y84D01*
X2292Y84D01*
X2292Y84D01*
X2292Y83D01*
X2292Y82D01*
X2293Y81D01*
X2293Y80D01*
X2293Y79D01*
X2294Y79D01*
X2294Y79D01*
X2294Y79D01*
X2294Y79D01*
X2294Y80D01*
X2294Y81D01*
X2295Y82D01*
X2295Y83D01*
X2296Y85D01*
X2305Y111D01*
X2311D01*
Y73D01*
D02*
G37*
G36*
X2080Y89D02*
Y73D01*
X2075D01*
Y89D01*
X2060Y111D01*
X2066D01*
X2074Y100D01*
Y100D01*
X2074Y99D01*
X2074Y99D01*
X2074Y99D01*
X2074Y99D01*
X2074Y98D01*
X2075Y98D01*
X2076Y97D01*
X2076Y96D01*
X2077Y94D01*
X2078Y93D01*
Y93D01*
X2078Y93D01*
X2078Y93D01*
X2078Y94D01*
X2078Y94D01*
X2078Y94D01*
X2079Y95D01*
X2079Y96D01*
X2080Y97D01*
X2081Y99D01*
X2082Y100D01*
X2089Y111D01*
X2095D01*
X2080Y89D01*
D02*
G37*
G36*
X2173Y73D02*
X2168D01*
Y111D01*
X2173D01*
Y73D01*
D02*
G37*
G36*
X2494Y107D02*
X2471D01*
Y95D01*
X2492D01*
Y91D01*
X2471D01*
Y78D01*
X2495D01*
Y73D01*
X2466D01*
Y111D01*
X2494D01*
Y107D01*
D02*
G37*
G36*
X2252Y73D02*
X2247D01*
X2227Y103D01*
Y73D01*
X2223D01*
Y111D01*
X2228D01*
X2248Y81D01*
Y111D01*
X2252D01*
Y73D01*
D02*
G37*
G36*
X2376Y111D02*
X2377Y111D01*
X2378Y111D01*
X2379Y111D01*
X2380Y111D01*
X2380D01*
X2381Y110D01*
X2381D01*
X2381Y110D01*
X2382Y110D01*
X2382Y110D01*
X2383Y110D01*
X2384Y109D01*
X2385Y108D01*
X2386Y108D01*
X2386D01*
X2386Y108D01*
X2386Y108D01*
X2386Y107D01*
X2387Y107D01*
X2388Y106D01*
X2388Y105D01*
X2389Y104D01*
X2390Y103D01*
X2390Y101D01*
Y101D01*
X2390Y101D01*
X2391Y101D01*
X2391Y101D01*
X2391Y100D01*
X2391Y100D01*
X2391Y99D01*
X2391Y99D01*
X2391Y98D01*
X2391Y97D01*
X2392Y96D01*
X2392Y94D01*
X2392Y92D01*
Y92D01*
Y92D01*
Y92D01*
Y92D01*
X2392Y91D01*
Y91D01*
X2392Y90D01*
X2392Y89D01*
X2391Y87D01*
X2391Y86D01*
X2391Y85D01*
Y85D01*
X2391Y85D01*
X2391Y84D01*
X2391Y84D01*
X2390Y84D01*
X2390Y83D01*
X2390Y82D01*
X2389Y81D01*
X2389Y80D01*
X2388Y79D01*
X2388Y79D01*
X2388Y79D01*
X2388Y78D01*
X2387Y78D01*
X2387Y77D01*
X2386Y77D01*
X2385Y76D01*
X2385Y76D01*
X2385Y76D01*
X2384Y76D01*
X2384Y75D01*
X2384Y75D01*
X2383Y75D01*
X2382Y74D01*
X2381Y74D01*
X2380Y74D01*
X2380D01*
X2380Y74D01*
X2380Y74D01*
X2379Y74D01*
X2379Y74D01*
X2378Y73D01*
X2377Y73D01*
X2375Y73D01*
X2374Y73D01*
X2361D01*
Y111D01*
X2375D01*
X2376Y111D01*
D02*
G37*
G36*
X2442Y78D02*
X2460D01*
Y73D01*
X2437D01*
Y111D01*
X2442D01*
Y78D01*
D02*
G37*
G36*
X2199Y112D02*
X2199D01*
X2200Y112D01*
X2201Y112D01*
X2201Y111D01*
X2203Y111D01*
X2204Y111D01*
X2206Y110D01*
X2207Y110D01*
X2208Y109D01*
X2208D01*
X2208Y109D01*
X2208Y109D01*
X2208Y109D01*
X2209Y108D01*
X2209Y108D01*
X2210Y107D01*
X2211Y106D01*
X2212Y105D01*
X2213Y104D01*
X2214Y102D01*
Y102D01*
X2214Y102D01*
X2214Y102D01*
X2214Y101D01*
X2214Y101D01*
X2215Y101D01*
X2215Y100D01*
X2215Y99D01*
X2215Y99D01*
X2216Y98D01*
X2216Y97D01*
X2216Y96D01*
X2216Y94D01*
X2216Y92D01*
Y92D01*
Y92D01*
Y92D01*
X2216Y91D01*
Y91D01*
X2216Y90D01*
X2216Y89D01*
X2216Y89D01*
X2216Y87D01*
X2215Y85D01*
X2215Y84D01*
X2214Y82D01*
Y82D01*
X2214Y82D01*
X2214Y81D01*
X2213Y81D01*
X2213Y81D01*
X2213Y80D01*
X2212Y79D01*
X2211Y78D01*
X2210Y77D01*
X2209Y76D01*
X2207Y75D01*
X2207D01*
X2207Y75D01*
X2207Y75D01*
X2207Y75D01*
X2206Y74D01*
X2206Y74D01*
X2205Y74D01*
X2205Y74D01*
X2204Y74D01*
X2203Y73D01*
X2202Y73D01*
X2200Y73D01*
X2198Y73D01*
X2198D01*
X2197Y73D01*
X2197D01*
X2196Y73D01*
X2196Y73D01*
X2195Y73D01*
X2193Y73D01*
X2192Y74D01*
X2190Y74D01*
X2189Y75D01*
X2189Y75D01*
X2188Y75D01*
X2188Y75D01*
X2188Y75D01*
X2188Y76D01*
X2188Y76D01*
X2187Y76D01*
X2186Y77D01*
X2185Y78D01*
X2184Y79D01*
X2183Y81D01*
X2182Y82D01*
Y82D01*
X2182Y82D01*
X2182Y83D01*
X2182Y83D01*
X2182Y83D01*
X2181Y84D01*
X2181Y84D01*
X2181Y85D01*
X2181Y86D01*
X2181Y86D01*
X2180Y88D01*
X2180Y90D01*
X2180Y92D01*
Y92D01*
Y92D01*
X2180Y93D01*
Y93D01*
X2180Y94D01*
X2180Y95D01*
X2180Y96D01*
X2181Y97D01*
X2181Y98D01*
X2181Y99D01*
X2182Y101D01*
X2182Y102D01*
X2183Y103D01*
X2183Y104D01*
X2184Y105D01*
X2185Y106D01*
X2185Y106D01*
X2185Y107D01*
X2186Y107D01*
X2186Y107D01*
X2187Y108D01*
X2187Y108D01*
X2188Y109D01*
X2189Y109D01*
X2190Y110D01*
X2190Y110D01*
X2192Y111D01*
X2193Y111D01*
X2194Y111D01*
X2195Y112D01*
X2197Y112D01*
X2198Y112D01*
X2199D01*
X2199Y112D01*
D02*
G37*
G36*
X2337D02*
X2337D01*
X2338Y112D01*
X2339Y112D01*
X2339Y111D01*
X2341Y111D01*
X2342Y111D01*
X2344Y110D01*
X2345Y110D01*
X2345Y109D01*
X2346D01*
X2346Y109D01*
X2346Y109D01*
X2346Y109D01*
X2347Y108D01*
X2347Y108D01*
X2348Y107D01*
X2349Y106D01*
X2350Y105D01*
X2351Y104D01*
X2352Y102D01*
Y102D01*
X2352Y102D01*
X2352Y102D01*
X2352Y101D01*
X2352Y101D01*
X2353Y101D01*
X2353Y100D01*
X2353Y99D01*
X2353Y99D01*
X2353Y98D01*
X2354Y97D01*
X2354Y96D01*
X2354Y94D01*
X2354Y92D01*
Y92D01*
Y92D01*
Y92D01*
X2354Y91D01*
Y91D01*
X2354Y90D01*
X2354Y89D01*
X2354Y89D01*
X2354Y87D01*
X2353Y85D01*
X2353Y84D01*
X2352Y82D01*
Y82D01*
X2352Y82D01*
X2352Y81D01*
X2351Y81D01*
X2351Y81D01*
X2351Y80D01*
X2350Y79D01*
X2349Y78D01*
X2348Y77D01*
X2347Y76D01*
X2345Y75D01*
X2345D01*
X2345Y75D01*
X2345Y75D01*
X2344Y75D01*
X2344Y74D01*
X2344Y74D01*
X2343Y74D01*
X2342Y74D01*
X2342Y74D01*
X2341Y73D01*
X2340Y73D01*
X2338Y73D01*
X2336Y73D01*
X2336D01*
X2335Y73D01*
X2335D01*
X2334Y73D01*
X2334Y73D01*
X2333Y73D01*
X2331Y73D01*
X2330Y74D01*
X2328Y74D01*
X2327Y75D01*
X2326Y75D01*
X2326Y75D01*
X2326Y75D01*
X2326Y75D01*
X2326Y76D01*
X2325Y76D01*
X2325Y76D01*
X2324Y77D01*
X2323Y78D01*
X2322Y79D01*
X2321Y81D01*
X2320Y82D01*
Y82D01*
X2320Y82D01*
X2320Y83D01*
X2320Y83D01*
X2320Y83D01*
X2319Y84D01*
X2319Y84D01*
X2319Y85D01*
X2319Y86D01*
X2319Y86D01*
X2318Y88D01*
X2318Y90D01*
X2318Y92D01*
Y92D01*
Y92D01*
X2318Y93D01*
Y93D01*
X2318Y94D01*
X2318Y95D01*
X2318Y96D01*
X2319Y97D01*
X2319Y98D01*
X2319Y99D01*
X2320Y101D01*
X2320Y102D01*
X2321Y103D01*
X2321Y104D01*
X2322Y105D01*
X2323Y106D01*
X2323Y106D01*
X2323Y107D01*
X2324Y107D01*
X2324Y107D01*
X2324Y108D01*
X2325Y108D01*
X2326Y109D01*
X2327Y109D01*
X2327Y110D01*
X2328Y110D01*
X2329Y111D01*
X2331Y111D01*
X2332Y111D01*
X2333Y112D01*
X2335Y112D01*
X2336Y112D01*
X2337D01*
X2337Y112D01*
D02*
G37*
G36*
X1876D02*
X1876D01*
X1877Y112D01*
X1877Y112D01*
X1878Y111D01*
X1880Y111D01*
X1881Y111D01*
X1883Y110D01*
X1884Y110D01*
X1884Y109D01*
X1884D01*
X1885Y109D01*
X1885Y109D01*
X1885Y109D01*
X1885Y108D01*
X1886Y108D01*
X1887Y107D01*
X1888Y106D01*
X1889Y105D01*
X1890Y104D01*
X1891Y102D01*
Y102D01*
X1891Y102D01*
X1891Y102D01*
X1891Y101D01*
X1891Y101D01*
X1892Y101D01*
X1892Y100D01*
X1892Y99D01*
X1892Y99D01*
X1892Y98D01*
X1893Y97D01*
X1893Y96D01*
X1893Y94D01*
X1893Y92D01*
Y92D01*
Y92D01*
Y92D01*
Y91D01*
X1893Y91D01*
Y91D01*
X1893Y90D01*
X1893Y89D01*
X1893Y88D01*
X1892Y87D01*
X1892Y85D01*
X1892Y84D01*
Y84D01*
X1892Y84D01*
X1891Y83D01*
X1891Y83D01*
X1891Y83D01*
X1891Y82D01*
X1891Y82D01*
X1890Y81D01*
X1889Y79D01*
X1888Y78D01*
X1887Y77D01*
X1887D01*
X1888Y77D01*
X1888Y77D01*
X1888Y77D01*
X1888Y77D01*
X1889Y76D01*
X1889Y76D01*
X1890Y75D01*
X1892Y75D01*
X1893Y74D01*
X1894Y74D01*
X1892Y70D01*
X1892D01*
X1892Y70D01*
X1892Y71D01*
X1892Y71D01*
X1891Y71D01*
X1891Y71D01*
X1890Y71D01*
X1890Y72D01*
X1889Y72D01*
X1887Y73D01*
X1886Y74D01*
X1884Y75D01*
X1884D01*
X1884Y75D01*
X1884Y75D01*
X1883Y75D01*
X1883Y74D01*
X1883Y74D01*
X1882Y74D01*
X1881Y74D01*
X1881Y74D01*
X1880Y73D01*
X1878Y73D01*
X1877Y73D01*
X1875Y73D01*
X1874D01*
X1874Y73D01*
X1874D01*
X1873Y73D01*
X1872Y73D01*
X1872Y73D01*
X1870Y73D01*
X1869Y74D01*
X1867Y74D01*
X1866Y75D01*
X1866Y75D01*
X1865Y75D01*
X1865Y75D01*
X1865Y75D01*
X1865Y76D01*
X1865Y76D01*
X1864Y76D01*
X1863Y77D01*
X1862Y78D01*
X1861Y79D01*
X1860Y80D01*
X1859Y82D01*
Y82D01*
X1859Y82D01*
X1859Y82D01*
X1859Y83D01*
X1859Y83D01*
X1858Y84D01*
X1858Y84D01*
X1858Y85D01*
X1858Y86D01*
X1858Y86D01*
X1857Y88D01*
X1857Y90D01*
X1857Y92D01*
Y92D01*
Y92D01*
Y93D01*
X1857Y93D01*
Y94D01*
X1857Y94D01*
X1857Y95D01*
X1857Y96D01*
X1857Y97D01*
X1858Y99D01*
X1858Y101D01*
X1859Y102D01*
Y102D01*
X1859Y103D01*
X1859Y103D01*
X1860Y103D01*
X1860Y103D01*
X1860Y104D01*
X1861Y105D01*
X1862Y106D01*
X1863Y107D01*
X1864Y108D01*
X1866Y109D01*
X1866Y109D01*
X1866Y109D01*
X1866Y110D01*
X1866Y110D01*
X1867Y110D01*
X1867Y110D01*
X1868Y110D01*
X1868Y111D01*
X1869Y111D01*
X1870Y111D01*
X1871Y111D01*
X1873Y112D01*
X1874Y112D01*
X1875D01*
X1876Y112D01*
D02*
G37*
G36*
X2005D02*
X2006Y112D01*
X2006Y112D01*
X2007Y112D01*
X2008Y111D01*
X2009Y111D01*
X2011Y111D01*
X2011Y110D01*
X2012Y110D01*
X2013Y109D01*
X2014Y109D01*
X2014Y109D01*
X2014Y109D01*
X2014Y109D01*
X2014Y108D01*
X2015Y108D01*
X2015Y108D01*
X2015Y107D01*
X2016Y107D01*
X2016Y106D01*
X2017Y106D01*
X2017Y105D01*
X2018Y104D01*
X2018Y103D01*
X2019Y103D01*
X2019Y102D01*
X2019Y101D01*
X2014Y100D01*
Y100D01*
X2014Y100D01*
X2014Y100D01*
X2014Y100D01*
X2014Y101D01*
X2014Y101D01*
X2013Y102D01*
X2013Y103D01*
X2012Y104D01*
X2011Y105D01*
X2010Y106D01*
X2010Y106D01*
X2010Y106D01*
X2009Y106D01*
X2009Y107D01*
X2008Y107D01*
X2007Y107D01*
X2006Y107D01*
X2004Y107D01*
X2004D01*
X2003Y107D01*
X2003D01*
X2003Y107D01*
X2002Y107D01*
X2000Y107D01*
X1999Y107D01*
X1998Y106D01*
X1997Y105D01*
X1997D01*
X1997Y105D01*
X1996Y105D01*
X1996Y105D01*
X1995Y104D01*
X1995Y103D01*
X1994Y102D01*
X1993Y101D01*
X1993Y100D01*
Y100D01*
X1993Y100D01*
X1993Y99D01*
X1993Y99D01*
X1992Y99D01*
X1992Y98D01*
X1992Y98D01*
X1992Y96D01*
X1992Y95D01*
X1992Y94D01*
X1992Y92D01*
Y92D01*
Y92D01*
Y92D01*
Y92D01*
X1992Y91D01*
Y91D01*
X1992Y90D01*
X1992Y90D01*
X1992Y88D01*
X1992Y87D01*
X1993Y85D01*
X1993Y84D01*
Y84D01*
X1993Y84D01*
X1993Y84D01*
X1993Y83D01*
X1994Y83D01*
X1994Y82D01*
X1995Y81D01*
X1995Y80D01*
X1996Y79D01*
X1997Y79D01*
X1997D01*
X1997Y79D01*
X1998Y78D01*
X1998Y78D01*
X1998Y78D01*
X1999Y78D01*
X2000Y77D01*
X2001Y77D01*
X2003Y77D01*
X2004Y77D01*
X2004D01*
X2004Y77D01*
X2005D01*
X2005Y77D01*
X2006Y77D01*
X2007Y78D01*
X2009Y78D01*
X2010Y79D01*
X2010Y79D01*
X2011Y79D01*
X2011Y79D01*
X2011Y79D01*
X2011Y80D01*
X2011Y80D01*
X2012Y80D01*
X2012Y80D01*
X2012Y81D01*
X2013Y82D01*
X2014Y83D01*
X2014Y85D01*
X2015Y87D01*
X2020Y85D01*
Y85D01*
X2020Y85D01*
X2020Y85D01*
X2020Y84D01*
X2019Y84D01*
X2019Y83D01*
X2019Y82D01*
X2019Y82D01*
X2018Y80D01*
X2017Y79D01*
X2016Y78D01*
X2016Y77D01*
X2015Y76D01*
X2014Y76D01*
X2014Y76D01*
X2014Y76D01*
X2014Y76D01*
X2013Y75D01*
X2013Y75D01*
X2013Y75D01*
X2012Y75D01*
X2011Y74D01*
X2011Y74D01*
X2010Y74D01*
X2009Y73D01*
X2008Y73D01*
X2007Y73D01*
X2006Y73D01*
X2005Y73D01*
X2004Y73D01*
X2004D01*
X2003Y73D01*
X2003D01*
X2002Y73D01*
X2001Y73D01*
X2001Y73D01*
X1999Y73D01*
X1997Y74D01*
X1996Y74D01*
X1995Y75D01*
X1994Y75D01*
X1994Y75D01*
X1994Y75D01*
X1994Y75D01*
X1994Y76D01*
X1993Y76D01*
X1993Y76D01*
X1992Y77D01*
X1991Y78D01*
X1990Y79D01*
X1989Y81D01*
X1988Y82D01*
Y82D01*
X1988Y83D01*
X1988Y83D01*
X1988Y83D01*
X1988Y84D01*
X1988Y84D01*
X1988Y85D01*
X1987Y85D01*
X1987Y86D01*
X1987Y87D01*
X1987Y89D01*
X1987Y90D01*
X1986Y92D01*
Y93D01*
Y93D01*
Y93D01*
X1986Y93D01*
Y94D01*
X1987Y95D01*
X1987Y95D01*
X1987Y96D01*
X1987Y98D01*
X1987Y99D01*
X1988Y101D01*
X1989Y103D01*
Y103D01*
X1989Y103D01*
X1989Y103D01*
X1989Y103D01*
X1989Y104D01*
X1990Y104D01*
X1990Y105D01*
X1991Y106D01*
X1992Y107D01*
X1994Y108D01*
X1995Y109D01*
X1995D01*
X1995Y110D01*
X1995Y110D01*
X1996Y110D01*
X1996Y110D01*
X1997Y110D01*
X1997Y110D01*
X1998Y111D01*
X1998Y111D01*
X1999Y111D01*
X2001Y111D01*
X2002Y112D01*
X2004Y112D01*
X2005D01*
X2005Y112D01*
D02*
G37*
G36*
X1930Y111D02*
X1931Y111D01*
X1932Y111D01*
X1933Y111D01*
X1934Y111D01*
X1934D01*
X1934Y110D01*
X1935D01*
X1935Y110D01*
X1935Y110D01*
X1936Y110D01*
X1937Y110D01*
X1938Y109D01*
X1939Y108D01*
X1940Y108D01*
X1940D01*
X1940Y108D01*
X1940Y108D01*
X1940Y107D01*
X1941Y107D01*
X1941Y106D01*
X1942Y105D01*
X1943Y104D01*
X1944Y103D01*
X1944Y101D01*
Y101D01*
X1944Y101D01*
X1944Y101D01*
X1944Y101D01*
X1945Y100D01*
X1945Y100D01*
X1945Y99D01*
X1945Y99D01*
X1945Y98D01*
X1945Y97D01*
X1946Y96D01*
X1946Y94D01*
X1946Y92D01*
Y92D01*
Y92D01*
Y92D01*
Y92D01*
X1946Y91D01*
Y91D01*
X1946Y90D01*
X1946Y89D01*
X1945Y87D01*
X1945Y86D01*
X1945Y85D01*
Y85D01*
X1945Y85D01*
X1945Y84D01*
X1945Y84D01*
X1944Y84D01*
X1944Y83D01*
X1944Y82D01*
X1943Y81D01*
X1943Y80D01*
X1942Y79D01*
X1942Y79D01*
X1942Y79D01*
X1942Y78D01*
X1941Y78D01*
X1941Y77D01*
X1940Y77D01*
X1939Y76D01*
X1939Y76D01*
X1939Y76D01*
X1938Y76D01*
X1938Y75D01*
X1937Y75D01*
X1937Y75D01*
X1936Y74D01*
X1935Y74D01*
X1934Y74D01*
X1934D01*
X1934Y74D01*
X1934Y74D01*
X1933Y74D01*
X1932Y74D01*
X1932Y73D01*
X1931Y73D01*
X1929Y73D01*
X1928Y73D01*
X1914D01*
Y111D01*
X1929D01*
X1930Y111D01*
D02*
G37*
G36*
X2116D02*
X2117Y111D01*
X2118Y111D01*
X2119Y111D01*
X2119Y111D01*
X2120D01*
X2120Y111D01*
X2120Y110D01*
X2121Y110D01*
X2122Y110D01*
X2123Y110D01*
X2123Y109D01*
X2124Y109D01*
X2124Y109D01*
X2124Y109D01*
X2125Y108D01*
X2125Y108D01*
X2126Y107D01*
X2126Y107D01*
X2127Y106D01*
X2127Y105D01*
X2127Y105D01*
X2127Y105D01*
X2127Y104D01*
X2128Y104D01*
X2128Y103D01*
X2128Y102D01*
X2128Y101D01*
X2128Y100D01*
Y100D01*
Y100D01*
Y100D01*
X2128Y99D01*
X2128Y99D01*
X2128Y98D01*
X2128Y98D01*
X2128Y97D01*
X2128Y96D01*
X2127Y95D01*
X2127Y94D01*
X2126Y93D01*
X2126Y93D01*
X2125Y92D01*
X2125Y92D01*
X2125Y92D01*
X2125Y92D01*
X2125Y91D01*
X2124Y91D01*
X2124Y91D01*
X2123Y91D01*
X2123Y90D01*
X2122Y90D01*
X2121Y90D01*
X2120Y89D01*
X2119Y89D01*
X2118Y89D01*
X2117Y89D01*
X2116Y89D01*
X2114Y89D01*
X2104D01*
Y73D01*
X2099D01*
Y111D01*
X2115D01*
X2116Y111D01*
D02*
G37*
G36*
X2429Y89D02*
Y89D01*
Y89D01*
Y89D01*
Y88D01*
X2428Y88D01*
Y87D01*
X2428Y87D01*
X2428Y86D01*
X2428Y84D01*
X2428Y83D01*
X2428Y82D01*
X2427Y80D01*
Y80D01*
X2427Y80D01*
X2427Y80D01*
X2427Y80D01*
X2427Y79D01*
X2426Y78D01*
X2426Y77D01*
X2425Y76D01*
X2424Y76D01*
X2423Y75D01*
X2423D01*
X2422Y75D01*
X2422Y75D01*
X2422Y74D01*
X2422Y74D01*
X2421Y74D01*
X2421Y74D01*
X2420Y74D01*
X2420Y73D01*
X2419Y73D01*
X2418Y73D01*
X2417Y73D01*
X2417Y73D01*
X2416Y73D01*
X2414Y73D01*
X2413D01*
X2413Y73D01*
X2412D01*
X2412Y73D01*
X2411Y73D01*
X2411Y73D01*
X2409Y73D01*
X2408Y73D01*
X2406Y74D01*
X2405Y74D01*
X2405D01*
X2405Y75D01*
X2405Y75D01*
X2405Y75D01*
X2404Y75D01*
X2403Y76D01*
X2402Y77D01*
X2402Y77D01*
X2401Y78D01*
X2400Y80D01*
Y80D01*
X2400Y80D01*
X2400Y80D01*
X2400Y80D01*
X2400Y81D01*
X2400Y81D01*
X2400Y82D01*
X2400Y82D01*
X2399Y83D01*
X2399Y84D01*
X2399Y84D01*
X2399Y85D01*
X2399Y86D01*
X2399Y87D01*
X2399Y88D01*
Y89D01*
Y111D01*
X2404D01*
Y89D01*
Y89D01*
Y89D01*
Y89D01*
Y88D01*
X2404Y88D01*
Y88D01*
X2404Y86D01*
X2404Y85D01*
X2404Y84D01*
X2404Y83D01*
X2405Y82D01*
X2405Y82D01*
X2405Y82D01*
X2405Y82D01*
X2405Y81D01*
X2405Y81D01*
X2406Y80D01*
X2406Y79D01*
X2407Y79D01*
X2408Y78D01*
X2408Y78D01*
X2408Y78D01*
X2409Y78D01*
X2409Y78D01*
X2410Y78D01*
X2411Y77D01*
X2412Y77D01*
X2413Y77D01*
X2414D01*
X2414Y77D01*
X2415D01*
X2415Y77D01*
X2416Y77D01*
X2418Y78D01*
X2419Y78D01*
X2420Y79D01*
X2421Y79D01*
X2421Y80D01*
X2421Y80D01*
X2421Y80D01*
X2421Y80D01*
X2422Y80D01*
X2422Y80D01*
X2422Y81D01*
X2422Y81D01*
X2422Y82D01*
X2423Y82D01*
X2423Y83D01*
X2423Y84D01*
X2423Y85D01*
X2423Y86D01*
X2423Y87D01*
X2424Y88D01*
Y89D01*
Y111D01*
X2429D01*
Y89D01*
D02*
G37*
G36*
X1980Y107D02*
X1958D01*
Y95D01*
X1979D01*
Y91D01*
X1958D01*
Y78D01*
X1981D01*
Y73D01*
X1953D01*
Y111D01*
X1980D01*
Y107D01*
D02*
G37*
G36*
X2044Y111D02*
X2045D01*
X2046Y111D01*
X2047Y111D01*
X2048Y111D01*
X2049Y110D01*
X2050Y110D01*
X2050Y110D01*
X2051D01*
X2051Y110D01*
X2051Y110D01*
X2051Y110D01*
X2052Y109D01*
X2053Y109D01*
X2053Y108D01*
X2054Y107D01*
X2055Y106D01*
X2055Y106D01*
X2055Y106D01*
X2055Y105D01*
X2056Y105D01*
X2056Y104D01*
X2056Y103D01*
X2056Y102D01*
X2056Y101D01*
Y101D01*
Y101D01*
Y100D01*
X2056Y100D01*
Y100D01*
X2056Y99D01*
X2056Y98D01*
X2056Y97D01*
X2055Y96D01*
X2055Y95D01*
X2054Y94D01*
X2054Y94D01*
X2054Y94D01*
X2054Y94D01*
X2053Y94D01*
X2053Y93D01*
X2053Y93D01*
X2053Y93D01*
X2052Y93D01*
X2052Y92D01*
X2051Y92D01*
X2051Y92D01*
X2050Y92D01*
X2049Y91D01*
X2048Y91D01*
X2048Y91D01*
X2047Y91D01*
X2046Y90D01*
X2046Y90D01*
X2046Y90D01*
X2046Y90D01*
X2047Y90D01*
X2048Y89D01*
X2048Y89D01*
X2049Y89D01*
X2049Y88D01*
X2049Y88D01*
X2049Y88D01*
X2050Y87D01*
X2051Y86D01*
X2051Y86D01*
X2052Y85D01*
X2053Y84D01*
X2059Y73D01*
X2053D01*
X2048Y81D01*
Y81D01*
X2048Y81D01*
X2048Y81D01*
X2048Y82D01*
X2047Y82D01*
X2047Y83D01*
X2046Y84D01*
X2046Y85D01*
X2045Y86D01*
X2044Y86D01*
X2044Y86D01*
X2044Y87D01*
X2044Y87D01*
X2044Y87D01*
X2043Y88D01*
X2042Y88D01*
X2042Y89D01*
X2042Y89D01*
X2042Y89D01*
X2042Y89D01*
X2041Y89D01*
X2040Y90D01*
X2040Y90D01*
X2040D01*
X2039Y90D01*
X2039D01*
X2039Y90D01*
X2039Y90D01*
X2038D01*
X2038Y90D01*
X2031D01*
Y73D01*
X2026D01*
Y111D01*
X2044D01*
X2044Y111D01*
D02*
G37*
%LPC*%
G36*
X1928Y107D02*
X1919D01*
Y78D01*
X1928D01*
X1929Y78D01*
X1930Y78D01*
X1931Y78D01*
X1932Y78D01*
X1933Y78D01*
X1933Y78D01*
X1933Y78D01*
X1934Y78D01*
X1934Y79D01*
X1935Y79D01*
X1935Y79D01*
X1936Y79D01*
X1936Y80D01*
X1937Y80D01*
X1937Y80D01*
X1937Y81D01*
X1937Y81D01*
X1938Y82D01*
X1938Y82D01*
X1939Y83D01*
X1939Y84D01*
X1940Y85D01*
Y85D01*
X1940Y85D01*
X1940Y85D01*
X1940Y86D01*
X1940Y86D01*
X1940Y86D01*
X1940Y87D01*
X1940Y88D01*
X1940Y90D01*
X1941Y91D01*
X1941Y92D01*
Y92D01*
Y93D01*
Y93D01*
X1941Y93D01*
Y94D01*
X1940Y95D01*
X1940Y95D01*
X1940Y96D01*
X1940Y97D01*
X1940Y99D01*
X1939Y100D01*
X1939Y101D01*
X1939Y102D01*
Y102D01*
X1938Y102D01*
X1938Y102D01*
X1938Y102D01*
X1938Y103D01*
X1937Y103D01*
X1937Y104D01*
X1936Y105D01*
X1935Y105D01*
X1934Y106D01*
X1934Y106D01*
X1933Y106D01*
X1933Y106D01*
X1932Y106D01*
X1931Y106D01*
X1930Y107D01*
X1929Y107D01*
X1928Y107D01*
D02*
G37*
G36*
X2374D02*
X2366D01*
Y78D01*
X2374D01*
X2375Y78D01*
X2376Y78D01*
X2377Y78D01*
X2378Y78D01*
X2379Y78D01*
X2379Y78D01*
X2380Y78D01*
X2380Y78D01*
X2380Y79D01*
X2381Y79D01*
X2381Y79D01*
X2382Y79D01*
X2382Y80D01*
X2383Y80D01*
X2383Y80D01*
X2383Y81D01*
X2384Y81D01*
X2384Y82D01*
X2384Y82D01*
X2385Y83D01*
X2385Y84D01*
X2386Y85D01*
Y85D01*
X2386Y85D01*
X2386Y85D01*
X2386Y86D01*
X2386Y86D01*
X2386Y86D01*
X2386Y87D01*
X2386Y88D01*
X2387Y90D01*
X2387Y91D01*
X2387Y92D01*
Y92D01*
Y93D01*
Y93D01*
X2387Y93D01*
Y94D01*
X2387Y95D01*
X2387Y95D01*
X2386Y96D01*
X2386Y97D01*
X2386Y99D01*
X2385Y100D01*
X2385Y101D01*
X2385Y102D01*
Y102D01*
X2385Y102D01*
X2384Y102D01*
X2384Y102D01*
X2384Y103D01*
X2383Y103D01*
X2383Y104D01*
X2382Y105D01*
X2381Y105D01*
X2380Y106D01*
X2380Y106D01*
X2380Y106D01*
X2379Y106D01*
X2378Y106D01*
X2378Y106D01*
X2376Y107D01*
X2375Y107D01*
X2374Y107D01*
D02*
G37*
G36*
X276Y985D02*
X259D01*
X276Y973D01*
Y985D01*
D02*
G37*
G36*
X2043Y107D02*
X2031D01*
Y94D01*
X2042D01*
X2043Y94D01*
X2044Y95D01*
X2045Y95D01*
X2046Y95D01*
X2046Y95D01*
X2047Y95D01*
X2047Y95D01*
X2048Y95D01*
X2048Y95D01*
X2048Y96D01*
X2049Y96D01*
X2049Y96D01*
X2050Y97D01*
X2050Y97D01*
X2050Y97D01*
X2050Y98D01*
X2050Y98D01*
X2051Y98D01*
X2051Y99D01*
X2051Y99D01*
X2051Y100D01*
X2051Y101D01*
Y101D01*
Y101D01*
X2051Y101D01*
X2051Y102D01*
X2051Y102D01*
X2051Y103D01*
X2050Y104D01*
X2050Y105D01*
X2049Y105D01*
X2049Y105D01*
X2049Y105D01*
X2048Y106D01*
X2048Y106D01*
X2047Y106D01*
X2046Y107D01*
X2045Y107D01*
X2043Y107D01*
D02*
G37*
G36*
X1875Y107D02*
X1874D01*
X1874Y107D01*
X1874Y107D01*
X1873Y107D01*
X1872Y107D01*
X1872Y107D01*
X1871Y107D01*
X1870Y106D01*
X1870Y106D01*
X1869Y106D01*
X1868Y105D01*
X1867Y105D01*
X1866Y104D01*
X1866Y104D01*
X1866Y103D01*
X1866Y103D01*
X1865Y103D01*
X1865Y103D01*
X1865Y102D01*
X1865Y102D01*
X1864Y101D01*
X1864Y101D01*
X1864Y100D01*
X1863Y99D01*
X1863Y98D01*
X1863Y97D01*
X1862Y96D01*
X1862Y95D01*
X1862Y94D01*
X1862Y92D01*
Y92D01*
Y92D01*
Y91D01*
X1862Y91D01*
X1862Y90D01*
X1862Y90D01*
X1862Y89D01*
X1863Y88D01*
X1863Y86D01*
X1863Y85D01*
X1864Y84D01*
X1864Y83D01*
X1864Y82D01*
X1865Y82D01*
X1866Y81D01*
X1866Y81D01*
X1866Y81D01*
X1866Y81D01*
X1866Y80D01*
X1867Y80D01*
X1867Y80D01*
X1868Y79D01*
X1868Y79D01*
X1869Y79D01*
X1870Y78D01*
X1870Y78D01*
X1871Y78D01*
X1872Y77D01*
X1873Y77D01*
X1874Y77D01*
X1875Y77D01*
X1875D01*
X1876Y77D01*
X1877Y77D01*
X1877Y77D01*
X1878Y77D01*
X1879Y78D01*
X1880Y78D01*
X1880Y78D01*
X1880Y78D01*
X1879Y78D01*
X1879Y79D01*
X1878Y79D01*
X1877Y79D01*
X1876Y80D01*
X1875Y80D01*
X1876Y84D01*
X1876D01*
X1877Y84D01*
X1877Y84D01*
X1877Y83D01*
X1877Y83D01*
X1878Y83D01*
X1879Y83D01*
X1880Y82D01*
X1881Y82D01*
X1882Y81D01*
X1883Y80D01*
X1884Y80D01*
X1884Y80D01*
X1884Y81D01*
X1884Y81D01*
X1884Y81D01*
X1885Y82D01*
X1885Y82D01*
X1886Y83D01*
X1886Y84D01*
X1887Y85D01*
X1887Y86D01*
X1887Y87D01*
X1888Y88D01*
X1888Y89D01*
X1888Y91D01*
X1888Y92D01*
Y92D01*
Y92D01*
Y93D01*
Y93D01*
X1888Y93D01*
Y94D01*
X1888Y94D01*
X1888Y95D01*
X1888Y96D01*
X1887Y97D01*
X1887Y99D01*
X1886Y100D01*
Y100D01*
X1886Y100D01*
X1886Y101D01*
X1886Y101D01*
X1886Y101D01*
X1885Y102D01*
X1885Y103D01*
X1884Y104D01*
X1883Y105D01*
X1882Y106D01*
X1882D01*
X1882Y106D01*
X1881Y106D01*
X1881Y106D01*
X1881Y106D01*
X1881Y106D01*
X1880Y106D01*
X1879Y107D01*
X1878Y107D01*
X1876Y107D01*
X1875Y107D01*
D02*
G37*
G36*
X2115Y107D02*
X2104D01*
Y93D01*
X2115D01*
X2115Y93D01*
X2115D01*
X2116Y93D01*
X2117Y93D01*
X2118Y94D01*
X2119Y94D01*
X2120Y94D01*
X2121Y95D01*
X2121Y95D01*
X2121Y95D01*
X2121Y95D01*
X2122Y96D01*
X2122Y96D01*
X2122Y97D01*
X2123Y98D01*
X2123Y99D01*
X2123Y100D01*
Y100D01*
Y100D01*
Y100D01*
X2123Y101D01*
X2123Y101D01*
X2123Y102D01*
X2123Y103D01*
X2122Y103D01*
X2122Y104D01*
X2122Y104D01*
X2122Y104D01*
X2121Y105D01*
X2121Y105D01*
X2121Y105D01*
X2120Y106D01*
X2119Y106D01*
X2119Y106D01*
X2119D01*
X2118Y106D01*
X2118Y106D01*
X2118Y106D01*
X2117Y107D01*
X2116Y107D01*
X2115Y107D01*
D02*
G37*
G36*
X2202Y349D02*
X2202D01*
X2202Y349D01*
X2201Y349D01*
X2200Y349D01*
X2200Y348D01*
X2199Y348D01*
X2198Y347D01*
X2197Y347D01*
X2197Y346D01*
X2197Y346D01*
X2196Y346D01*
X2196Y345D01*
X2195Y344D01*
X2195Y343D01*
X2195Y342D01*
X2195Y341D01*
Y341D01*
Y341D01*
X2195Y340D01*
X2195Y340D01*
X2195Y339D01*
X2195Y339D01*
X2195Y338D01*
X2196Y337D01*
X2196Y337D01*
X2196Y337D01*
X2196Y337D01*
X2196Y336D01*
X2197Y336D01*
X2197Y335D01*
X2198Y335D01*
X2199Y334D01*
X2199Y334D01*
X2199Y334D01*
X2199Y334D01*
X2200Y334D01*
X2200Y334D01*
X2201Y333D01*
X2202Y333D01*
X2203Y333D01*
X2203D01*
X2203Y333D01*
X2204Y333D01*
X2205Y334D01*
X2205Y334D01*
X2206Y334D01*
X2207Y335D01*
X2208Y335D01*
X2208Y336D01*
X2209Y336D01*
X2209Y336D01*
X2209Y337D01*
X2210Y338D01*
X2210Y339D01*
X2210Y340D01*
X2210Y341D01*
Y341D01*
Y341D01*
Y341D01*
X2210Y341D01*
X2210Y342D01*
X2210Y343D01*
X2210Y344D01*
X2209Y345D01*
X2209Y346D01*
X2208Y347D01*
X2208Y347D01*
X2208Y347D01*
X2207Y347D01*
X2207Y348D01*
X2206Y348D01*
X2205Y348D01*
X2204Y349D01*
X2202Y349D01*
D02*
G37*
G36*
X2173Y365D02*
X2172D01*
X2172Y365D01*
X2171Y364D01*
X2171Y364D01*
X2170Y364D01*
X2169Y363D01*
X2169Y363D01*
X2168Y363D01*
X2168Y362D01*
X2167Y362D01*
Y362D01*
X2167Y362D01*
X2167Y361D01*
X2167Y361D01*
X2167Y361D01*
X2167Y360D01*
X2166Y360D01*
X2166Y359D01*
X2166Y358D01*
X2166Y357D01*
X2166Y356D01*
X2165Y355D01*
X2165Y354D01*
X2165Y352D01*
X2165Y351D01*
X2165Y349D01*
Y349D01*
Y349D01*
Y348D01*
X2165Y347D01*
Y347D01*
X2165Y346D01*
X2165Y345D01*
X2165Y344D01*
X2165Y342D01*
X2166Y340D01*
X2166Y339D01*
X2166Y338D01*
X2167Y337D01*
X2167Y336D01*
Y336D01*
X2167Y336D01*
X2168Y336D01*
X2168Y335D01*
X2169Y335D01*
X2169Y334D01*
X2170Y334D01*
X2171Y333D01*
X2172Y333D01*
X2173Y333D01*
X2173D01*
X2173Y333D01*
X2174Y333D01*
X2174Y334D01*
X2175Y334D01*
X2176Y335D01*
X2177Y335D01*
X2177Y335D01*
X2178Y336D01*
X2178Y336D01*
Y336D01*
X2178Y337D01*
X2178Y337D01*
X2178Y337D01*
X2179Y337D01*
X2179Y338D01*
X2179Y338D01*
X2179Y339D01*
X2179Y340D01*
X2180Y341D01*
X2180Y342D01*
X2180Y343D01*
X2180Y344D01*
X2180Y346D01*
X2180Y347D01*
Y349D01*
Y349D01*
Y349D01*
Y350D01*
X2180Y350D01*
Y351D01*
X2180Y352D01*
X2180Y353D01*
X2180Y354D01*
X2180Y356D01*
X2179Y358D01*
X2179Y359D01*
X2179Y360D01*
X2178Y361D01*
X2178Y362D01*
Y362D01*
X2178Y362D01*
X2178Y362D01*
X2177Y362D01*
X2177Y363D01*
X2176Y364D01*
X2175Y364D01*
X2174Y365D01*
X2173Y365D01*
X2173Y365D01*
D02*
G37*
G36*
X2080Y361D02*
X2068Y344D01*
X2080D01*
Y361D01*
D02*
G37*
G36*
X460D02*
X448Y344D01*
X460D01*
Y361D01*
D02*
G37*
G36*
X2203Y365D02*
X2202D01*
X2202Y365D01*
X2201Y364D01*
X2200Y364D01*
X2199Y364D01*
X2199Y363D01*
X2198Y363D01*
X2198Y363D01*
X2198Y363D01*
X2198Y362D01*
X2197Y362D01*
X2197Y361D01*
X2197Y360D01*
X2196Y360D01*
X2196Y359D01*
Y359D01*
Y359D01*
X2196Y358D01*
X2196Y358D01*
X2197Y357D01*
X2197Y356D01*
X2197Y356D01*
X2197Y355D01*
X2198Y354D01*
X2198Y354D01*
X2198Y354D01*
X2199Y354D01*
X2199Y353D01*
X2200Y353D01*
X2201Y353D01*
X2202Y353D01*
X2203Y353D01*
X2203D01*
X2203Y353D01*
X2204Y353D01*
X2204Y353D01*
X2205Y353D01*
X2206Y353D01*
X2206Y354D01*
X2207Y354D01*
X2207Y354D01*
X2207Y355D01*
X2208Y355D01*
X2208Y355D01*
X2208Y356D01*
X2209Y357D01*
X2209Y358D01*
X2209Y358D01*
Y359D01*
Y359D01*
Y359D01*
X2209Y359D01*
X2209Y360D01*
X2208Y361D01*
X2208Y361D01*
X2208Y362D01*
X2207Y363D01*
X2207Y363D01*
X2207Y363D01*
X2206Y363D01*
X2206Y364D01*
X2205Y364D01*
X2204Y364D01*
X2204Y365D01*
X2203Y365D01*
D02*
G37*
G36*
X2198Y107D02*
X2198D01*
X2197Y107D01*
X2197Y107D01*
X2196Y107D01*
X2196Y107D01*
X2195Y107D01*
X2194Y107D01*
X2193Y106D01*
X2192Y106D01*
X2191Y105D01*
X2191Y105D01*
X2190Y104D01*
X2189Y104D01*
X2189Y104D01*
X2189Y104D01*
X2189Y103D01*
X2188Y103D01*
X2188Y103D01*
X2188Y102D01*
X2187Y102D01*
X2187Y101D01*
X2187Y100D01*
X2186Y99D01*
X2186Y98D01*
X2186Y97D01*
X2186Y96D01*
X2185Y95D01*
X2185Y93D01*
X2185Y92D01*
Y92D01*
Y91D01*
Y91D01*
X2185Y90D01*
X2185Y90D01*
X2185Y89D01*
X2185Y88D01*
X2186Y88D01*
X2186Y86D01*
X2186Y85D01*
X2187Y84D01*
X2187Y83D01*
X2188Y82D01*
X2188Y82D01*
X2189Y81D01*
X2189Y81D01*
X2189Y81D01*
X2189Y80D01*
X2190Y80D01*
X2190Y80D01*
X2190Y80D01*
X2191Y79D01*
X2191Y79D01*
X2192Y78D01*
X2193Y78D01*
X2193Y78D01*
X2194Y78D01*
X2195Y77D01*
X2196Y77D01*
X2197Y77D01*
X2198Y77D01*
X2199D01*
X2199Y77D01*
X2199Y77D01*
X2200Y77D01*
X2201Y77D01*
X2201Y77D01*
X2202Y78D01*
X2203Y78D01*
X2204Y78D01*
X2204Y79D01*
X2205Y79D01*
X2206Y80D01*
X2207Y80D01*
X2207Y81D01*
X2207Y81D01*
X2208Y81D01*
X2208Y81D01*
X2208Y82D01*
X2208Y82D01*
X2209Y82D01*
X2209Y83D01*
X2209Y84D01*
X2210Y84D01*
X2210Y85D01*
X2210Y86D01*
X2210Y87D01*
X2211Y88D01*
X2211Y90D01*
X2211Y91D01*
X2211Y92D01*
Y92D01*
Y92D01*
Y93D01*
Y93D01*
X2211Y93D01*
Y94D01*
X2211Y94D01*
X2211Y95D01*
X2211Y96D01*
X2210Y97D01*
X2210Y99D01*
X2209Y100D01*
Y100D01*
X2209Y100D01*
X2209Y101D01*
X2209Y101D01*
X2209Y101D01*
X2208Y102D01*
X2208Y103D01*
X2207Y104D01*
X2206Y105D01*
X2205Y106D01*
X2205D01*
X2205Y106D01*
X2205Y106D01*
X2204Y106D01*
X2204Y106D01*
X2204Y106D01*
X2203Y106D01*
X2202Y107D01*
X2201Y107D01*
X2199Y107D01*
X2198Y107D01*
D02*
G37*
G36*
X1428Y346D02*
X1428D01*
X1427Y346D01*
X1427Y346D01*
X1426Y345D01*
X1425Y345D01*
X1424Y345D01*
X1423Y344D01*
X1422Y343D01*
X1422Y343D01*
X1422Y343D01*
X1422Y342D01*
X1421Y342D01*
X1421Y341D01*
X1421Y340D01*
X1420Y339D01*
X1420Y337D01*
Y337D01*
Y337D01*
X1420Y337D01*
X1420Y336D01*
X1420Y335D01*
X1421Y334D01*
X1421Y334D01*
X1421Y333D01*
X1421Y333D01*
X1421Y332D01*
X1422Y332D01*
X1422Y332D01*
X1422Y331D01*
X1423Y330D01*
X1423Y330D01*
X1424Y329D01*
X1424Y329D01*
X1424Y329D01*
X1425Y329D01*
X1425Y329D01*
X1426Y329D01*
X1427Y328D01*
X1427Y328D01*
X1428Y328D01*
X1428D01*
X1429Y328D01*
X1429Y328D01*
X1430Y329D01*
X1431Y329D01*
X1431Y329D01*
X1432Y330D01*
X1433Y331D01*
X1433Y331D01*
X1433Y331D01*
X1434Y332D01*
X1434Y332D01*
X1435Y333D01*
X1435Y334D01*
X1435Y336D01*
X1435Y337D01*
Y337D01*
Y337D01*
Y338D01*
X1435Y338D01*
Y338D01*
X1435Y339D01*
X1435Y339D01*
X1435Y340D01*
X1434Y341D01*
X1434Y342D01*
X1433Y343D01*
X1433Y343D01*
X1433Y344D01*
X1432Y344D01*
X1432Y345D01*
X1431Y345D01*
X1430Y345D01*
X1429Y346D01*
X1428Y346D01*
D02*
G37*
G36*
X1398Y344D02*
X1397D01*
X1397Y344D01*
X1396Y344D01*
X1396Y343D01*
X1395Y343D01*
X1394Y343D01*
X1393Y342D01*
X1392Y342D01*
X1392Y341D01*
X1392Y341D01*
X1391Y341D01*
X1391Y340D01*
X1391Y339D01*
X1390Y338D01*
X1390Y337D01*
X1390Y336D01*
Y336D01*
Y336D01*
X1390Y335D01*
X1390Y335D01*
X1390Y334D01*
X1390Y334D01*
X1391Y333D01*
X1391Y332D01*
X1391Y332D01*
X1391Y332D01*
X1391Y332D01*
X1392Y331D01*
X1392Y331D01*
X1392Y330D01*
X1393Y330D01*
X1394Y329D01*
X1394Y329D01*
X1394Y329D01*
X1394Y329D01*
X1395Y329D01*
X1395Y329D01*
X1396Y328D01*
X1397Y328D01*
X1398Y328D01*
X1398D01*
X1398Y328D01*
X1399Y328D01*
X1400Y329D01*
X1401Y329D01*
X1402Y329D01*
X1402Y330D01*
X1403Y330D01*
X1403Y331D01*
X1404Y331D01*
X1404Y331D01*
X1404Y332D01*
X1405Y333D01*
X1405Y334D01*
X1405Y335D01*
X1406Y336D01*
Y336D01*
Y336D01*
Y336D01*
X1405Y336D01*
X1405Y337D01*
X1405Y338D01*
X1405Y339D01*
X1405Y340D01*
X1404Y341D01*
X1403Y342D01*
X1403Y342D01*
X1403Y342D01*
X1402Y342D01*
X1402Y343D01*
X1401Y343D01*
X1400Y343D01*
X1399Y344D01*
X1398Y344D01*
D02*
G37*
G36*
X1305Y356D02*
X1293Y339D01*
X1305D01*
Y356D01*
D02*
G37*
G36*
X2336Y107D02*
X2336D01*
X2335Y107D01*
X2335Y107D01*
X2334Y107D01*
X2334Y107D01*
X2333Y107D01*
X2331Y107D01*
X2331Y106D01*
X2330Y106D01*
X2329Y105D01*
X2328Y105D01*
X2328Y104D01*
X2327Y104D01*
X2327Y104D01*
X2327Y104D01*
X2327Y103D01*
X2326Y103D01*
X2326Y103D01*
X2326Y102D01*
X2325Y102D01*
X2325Y101D01*
X2325Y100D01*
X2324Y99D01*
X2324Y98D01*
X2324Y97D01*
X2323Y96D01*
X2323Y95D01*
X2323Y93D01*
X2323Y92D01*
Y92D01*
Y91D01*
Y91D01*
X2323Y90D01*
X2323Y90D01*
X2323Y89D01*
X2323Y88D01*
X2324Y88D01*
X2324Y86D01*
X2324Y85D01*
X2325Y84D01*
X2325Y83D01*
X2326Y82D01*
X2326Y82D01*
X2327Y81D01*
X2327Y81D01*
X2327Y81D01*
X2327Y80D01*
X2327Y80D01*
X2328Y80D01*
X2328Y80D01*
X2329Y79D01*
X2329Y79D01*
X2330Y78D01*
X2331Y78D01*
X2331Y78D01*
X2332Y78D01*
X2333Y77D01*
X2334Y77D01*
X2335Y77D01*
X2336Y77D01*
X2337D01*
X2337Y77D01*
X2337Y77D01*
X2338Y77D01*
X2339Y77D01*
X2339Y77D01*
X2340Y78D01*
X2341Y78D01*
X2342Y78D01*
X2342Y79D01*
X2343Y79D01*
X2344Y80D01*
X2345Y80D01*
X2345Y81D01*
X2345Y81D01*
X2345Y81D01*
X2346Y81D01*
X2346Y82D01*
X2346Y82D01*
X2347Y82D01*
X2347Y83D01*
X2347Y84D01*
X2348Y84D01*
X2348Y85D01*
X2348Y86D01*
X2348Y87D01*
X2349Y88D01*
X2349Y90D01*
X2349Y91D01*
X2349Y92D01*
Y92D01*
Y92D01*
Y93D01*
Y93D01*
X2349Y93D01*
Y94D01*
X2349Y94D01*
X2349Y95D01*
X2349Y96D01*
X2348Y97D01*
X2348Y99D01*
X2347Y100D01*
Y100D01*
X2347Y100D01*
X2347Y101D01*
X2347Y101D01*
X2347Y101D01*
X2346Y102D01*
X2346Y103D01*
X2345Y104D01*
X2344Y105D01*
X2343Y106D01*
X2343D01*
X2343Y106D01*
X2343Y106D01*
X2342Y106D01*
X2342Y106D01*
X2342Y106D01*
X2341Y106D01*
X2340Y107D01*
X2339Y107D01*
X2337Y107D01*
X2336Y107D01*
D02*
G37*
G36*
X1398Y360D02*
X1397D01*
X1397Y360D01*
X1396Y359D01*
X1395Y359D01*
X1395Y359D01*
X1394Y358D01*
X1393Y358D01*
X1393Y358D01*
X1393Y358D01*
X1393Y357D01*
X1392Y357D01*
X1392Y356D01*
X1392Y355D01*
X1392Y355D01*
X1391Y354D01*
Y354D01*
Y354D01*
X1392Y353D01*
X1392Y353D01*
X1392Y352D01*
X1392Y351D01*
X1392Y351D01*
X1393Y350D01*
X1393Y349D01*
X1393Y349D01*
X1393Y349D01*
X1394Y349D01*
X1394Y348D01*
X1395Y348D01*
X1396Y348D01*
X1397Y348D01*
X1398Y348D01*
X1398D01*
X1398Y348D01*
X1399Y348D01*
X1399Y348D01*
X1400Y348D01*
X1401Y348D01*
X1401Y349D01*
X1402Y349D01*
X1402Y349D01*
X1402Y350D01*
X1403Y350D01*
X1403Y350D01*
X1403Y351D01*
X1404Y352D01*
X1404Y353D01*
X1404Y353D01*
Y354D01*
Y354D01*
Y354D01*
X1404Y354D01*
X1404Y355D01*
X1403Y356D01*
X1403Y356D01*
X1403Y357D01*
X1402Y358D01*
X1402Y358D01*
X1402Y358D01*
X1401Y358D01*
X1401Y359D01*
X1400Y359D01*
X1399Y359D01*
X1399Y360D01*
X1398Y360D01*
D02*
G37*
%LPD*%
D10*
X125Y325D02*
G03*
X125Y375I0J25D01*
G01*
X525Y1175D02*
G03*
X525Y1225I0J25D01*
G01*
X1775Y325D02*
G03*
X1775Y375I0J25D01*
G01*
X1000Y325D02*
G03*
X1000Y375I0J25D01*
G01*
X250Y1400D02*
G03*
X300Y1400I25J0D01*
G01*
X125Y250D02*
X925D01*
Y450D01*
X125D02*
X925D01*
X125Y375D02*
Y450D01*
Y250D02*
Y325D01*
X525Y950D02*
X2525D01*
Y1450D01*
X525D02*
X2525D01*
X525Y1225D02*
Y1450D01*
Y950D02*
Y1175D01*
X1775Y250D02*
X2475D01*
Y450D01*
X1775D02*
X2475D01*
X1775Y375D02*
Y450D01*
Y250D02*
Y325D01*
X1000Y250D02*
Y325D01*
Y375D02*
Y450D01*
X1700D01*
Y250D02*
Y450D01*
X1000Y250D02*
X1700D01*
X175Y700D02*
Y1400D01*
Y700D02*
X375D01*
Y1400D01*
X300D02*
X375D01*
X175D02*
X250D01*
M02*
