M48
;Layer_Color=9474304
;FILE_FORMAT=2:5
INCH,TZ
;TYPE=PLATED
T1F00S00C0.02500
T2F00S00C0.02800
T3F00S00C0.03200
T4F00S00C0.03543
%
T01
X135000Y37500
T02
X242500Y35000
X167500Y100000
X142500Y105000
X147500Y115000
X92500Y83000
X110000Y65000
X72500Y56000
X232500Y156000
T03
X192500Y20000
X202500
X212500
X222500
X232500
X242500
X182500
X165000
X155000
X145000
X135000
X125000
X115000
X105000
X87500
X77500
X67500
X57500
X47500
X37500
X27500
X17500
Y50000
X27500
X12500Y75000
Y85000
Y95000
Y105000
Y115000
Y125000
Y135000
X42500
Y125000
Y115000
Y105000
Y95000
Y85000
Y75000
X37500Y50000
X47500
X57500
X67500
X77500
X87500
X105000
X115000
X125000
X135000
X145000
X155000
X165000
X182500
X187500Y90000
X177500
X167500
X157500
X147500
X137500
X127500
X117500
X107500
X97500
X87500
X77500
X67500
X57500
Y150000
X67500
X77500
X87500
X97500
X107500
X117500
X127500
X137500
X147500
X157500
X167500
X177500
X187500
X197500
X207500
X217500
X227500
X237500
X247500
Y90000
X237500
X227500
X217500
X207500
X197500
X192500Y50000
X202500
X212500
X222500
X232500
X242500
T04
X57500Y75000
X67500
X77500
X87500
X97500
X107500
X117500
X127500
X137500
X147500
X157500
X167500
X177500
X187500
Y135000
X177500
X167500
X157500
X147500
X137500
X127500
X117500
X107500
X97500
X87500
X77500
X67500
X57500
X197500
X207500
X217500
X227500
X237500
X247500
Y75000
X237500
X227500
X217500
X207500
X197500
M30
