G04 Layer_Color=32896*
%FSLAX23Y23*%
%MOIN*%
G70*
G01*
G75*
%ADD31C,0.012*%
%ADD32C,0.008*%
D31*
X1530Y1195D02*
X1620D01*
X1530Y1005D02*
X1620D01*
Y1120D02*
Y1195D01*
X1530Y1120D02*
Y1195D01*
Y1005D02*
Y1080D01*
X1620Y1005D02*
Y1080D01*
X1780Y255D02*
X1870D01*
X1780Y445D02*
X1870D01*
X1780Y255D02*
Y330D01*
X1870Y255D02*
Y330D01*
Y370D02*
Y445D01*
X1780Y370D02*
Y445D01*
X130Y255D02*
X220D01*
X130Y445D02*
X220D01*
X130Y255D02*
Y330D01*
X220Y255D02*
Y330D01*
Y370D02*
Y445D01*
X130Y370D02*
Y445D01*
X175Y1305D02*
Y1395D01*
X365Y1305D02*
Y1395D01*
X175D02*
X250D01*
X175Y1305D02*
X250D01*
X290D02*
X365D01*
X290Y1395D02*
X365D01*
X870Y550D02*
Y640D01*
X1060Y550D02*
Y640D01*
X870D02*
X945D01*
X870Y550D02*
X945D01*
X985D02*
X1060D01*
X985Y640D02*
X1060D01*
D32*
X2525Y1300D02*
Y1400D01*
X525D02*
X2525D01*
X525Y1300D02*
Y1400D01*
Y1300D02*
X600D01*
X2525D01*
Y700D02*
Y800D01*
X525D02*
X2525D01*
X525Y700D02*
Y800D01*
Y700D02*
X600D01*
X2525D01*
M02*
